<?xml version="1.0" standalone="no"?>
<!DOCTYPE svg PUBLIC "-//W3C//DTD SVG 1.1//EN" "http://www.w3.org/Graphics/SVG/1.1/DTD/svg11.dtd" >
<svg xmlns="http://www.w3.org/2000/svg">
<metadata></metadata>
<defs>
<font id="daysregular" horiz-adv-x="468" >
<font-face units-per-em="1000" ascent="800" descent="-200" />
<missing-glyph horiz-adv-x="350" />
<glyph horiz-adv-x="1000" />
<glyph horiz-adv-x="1000" />
<glyph unicode="&#xd;" horiz-adv-x="1000" />
<glyph unicode=" "  horiz-adv-x="350" />
<glyph unicode="&#x09;" horiz-adv-x="350" />
<glyph unicode="&#xa0;" horiz-adv-x="350" />
<glyph unicode="!" horiz-adv-x="319" d="M61 654q-1 19 13 32.5t33 13.5h105q19 0 33 -13.5t13 -32.5l-14 -401q-1 -19 -14 -32t-32 -13h-77q-19 0 -32 13t-14 32zM64 61v31q0 32 17 49t49 17h60q32 0 49 -17t17 -49v-31q0 -31 -17 -48.5t-49 -17.5h-60q-32 0 -49 17.5t-17 48.5z" />
<glyph unicode="&#x22;" horiz-adv-x="394" d="M31 660q-1 17 10 28.5t29 11.5h64q18 0 29 -11.5t10 -28.5l-15 -208q-2 -18 -13 -29t-28 -11h-30q-17 0 -28 11t-13 29zM221 660q-1 17 10 28.5t29 11.5h64q18 0 29 -11.5t10 -28.5l-15 -208q-2 -18 -13 -29t-28 -11h-30q-17 0 -28 11t-13 29z" />
<glyph unicode="#" horiz-adv-x="837" d="M20 190v58q1 13 9 21.5t21 8.5h106l41 144h-103q-13 0 -21.5 8.5t-8.5 21.5v58q0 13 8.5 21.5t21.5 8.5h136l33 114q13 46 80 46h56q18 0 25 -13t2 -33l-33 -114h145l33 114q13 46 80 46h56q18 0 25 -13t2 -33l-33 -114h86q13 0 21 -8.5t9 -21.5v-58q-1 -13 -9 -21.5 t-21 -8.5h-119l-41 -144h103q13 0 21.5 -8.5t8.5 -21.5v-58q0 -13 -8 -21.5t-21 -8.5h-137l-32 -114q-13 -46 -80 -46h-56q-18 0 -25 13t-2 33l32 114h-145l-32 -114q-13 -46 -80 -46h-56q-18 0 -25 13t-2 33l32 114h-73q-13 0 -21.5 8.5t-8.5 21.5zM315 275h151l42 150 h-151z" />
<glyph unicode="$" horiz-adv-x="779" d="M30 176q0 29 17 41.5t33 12.5h58q44 0 66 -46q24 -50 104 -50h4v155q-46 10 -81.5 20.5t-74 28t-63 39t-41 53t-16.5 70.5q0 93 62.5 145t213.5 58v46q0 13 8.5 21.5t21.5 8.5h36v-75h27v75h36q13 0 21.5 -8.5t8.5 -21.5v-45q99 -1 179.5 -52.5t80.5 -127.5 q0 -29 -17 -41.5t-33 -12.5h-58q-44 0 -66 46q-21 44 -86 49v-153q59 -13 102 -27.5t86.5 -38.5t66.5 -61t23 -85q0 -93 -63 -145.5t-215 -57.5v-46q0 -13 -8.5 -21.5t-21.5 -8.5h-36v75h-27v-75h-36q-13 0 -21.5 8.5t-8.5 21.5v45h-21q-100 0 -180.5 51.5t-80.5 128.5z M220 510q0 -39 92 -64v120h-6q-86 0 -86 -56zM378 134h27v135l-27 5v-140zM378 431l27 -5v140h-27v-135zM471 134h8q86 0 86 56q0 39 -94 64v-120z" />
<glyph unicode="%" horiz-adv-x="837" d="M30 548q0 75 48.5 118.5t121.5 43.5t121.5 -43.5t48.5 -118.5t-48.5 -118.5t-121.5 -43.5t-121.5 43.5t-48.5 118.5zM85 46l487 608q36 46 85 46h78q19 0 24.5 -15t-7.5 -31l-487 -608q-36 -46 -85 -46h-78q-19 0 -24.5 15t7.5 31zM144 548q0 -33 15 -52t41 -19t41 19 t15 52t-15 52t-41 19t-41 -19t-15 -52zM467 153q0 75 48.5 118.5t121.5 43.5t121.5 -43.5t48.5 -118.5t-48.5 -118.5t-121.5 -43.5t-121.5 43.5t-48.5 118.5zM581 153q0 -33 15 -52t41 -19t41 19t15 52t-15 52t-41 19t-41 -19t-15 -52z" />
<glyph unicode="&#x26;" horiz-adv-x="762" d="M30 207q0 136 117 190q-44 48 -44 114q0 85 68 142t191 57q124 0 195 -43t71 -127q0 -13 -8.5 -21.5t-21.5 -8.5h-65q-33 0 -56 36q-29 46 -113 46q-43 0 -67 -19t-24 -53q0 -35 21.5 -65t62.5 -65l169 -147l48 69q17 23 40 8l53 -36q25 -18 8 -42l-59 -84l125 -112 q15 -14 8.5 -30t-25.5 -16h-111q-21 0 -40 8t-30 16.5t-30 26.5q-95 -61 -211 -61q-131 0 -201.5 58t-70.5 159zM194 207q0 -99 120 -99q60 0 103 29l-174 157q-49 -24 -49 -87z" />
<glyph unicode="'" horiz-adv-x="204" d="M31 660q-1 17 10 28.5t29 11.5h64q18 0 29 -11.5t10 -28.5l-15 -208q-2 -18 -13 -29t-28 -11h-30q-17 0 -28 11t-13 29z" />
<glyph unicode="(" horiz-adv-x="325" d="M30 305q0 131 53.5 246.5t159.5 185.5q10 7 21.5 3.5t18.5 -14.5l28 -46q10 -15 -12 -40q-117 -143 -117 -335t117 -335q22 -25 12 -40l-28 -46q-7 -11 -18.5 -14.5t-21.5 3.5q-106 70 -159.5 185.5t-53.5 246.5z" />
<glyph unicode=")" horiz-adv-x="325" d="M14 -70q-10 15 12 40q117 143 117 335t-117 335q-22 25 -12 40l28 46q7 11 18.5 14.5t21.5 -3.5q106 -70 159.5 -185.5t53.5 -246.5t-53.5 -246.5t-159.5 -185.5q-10 -7 -21.5 -3.5t-18.5 14.5z" />
<glyph unicode="*" horiz-adv-x="426" d="M35 432q-6 10 -3 22.5t14 18.5l70 37l-70 37q-11 6 -14 18.5t3 22.5l20 37q6 11 17.5 14.5t23.5 -3.5l65 -40l-1 77q0 12 8.5 19.5t21.5 7.5h46q13 0 21.5 -7.5t8.5 -19.5l-1 -77l65 40q12 7 23.5 3.5t17.5 -14.5l20 -37q6 -10 3 -22.5t-14 -18.5l-70 -37l70 -37 q11 -6 14 -18.5t-3 -22.5l-20 -37q-6 -11 -17.5 -14.5t-23.5 3.5l-65 40l1 -77q0 -12 -8.5 -19.5t-21.5 -7.5h-46q-13 0 -21.5 7.5t-8.5 19.5l1 77l-65 -40q-12 -7 -23.5 -3.5t-17.5 14.5z" />
<glyph unicode="+" d="M20 278v58q0 13 8.5 21.5t21.5 8.5h122v122q0 13 8.5 21.5t21.5 8.5h58q13 0 21.5 -8.5t8.5 -21.5v-122h128q13 0 21.5 -8.5t8.5 -21.5v-58q0 -13 -8.5 -21.5t-21.5 -8.5h-128v-128q0 -13 -8.5 -21.5t-21.5 -8.5h-58q-13 0 -21.5 8.5t-8.5 21.5v128h-122q-13 0 -21.5 8.5 t-8.5 21.5z" />
<glyph unicode="," horiz-adv-x="269" d="M23 -55l29 157q4 23 26.5 39.5t47.5 16.5h40q39 0 54.5 -20.5t1.5 -55.5l-58 -147q-10 -24 -30.5 -40t-46.5 -16h-19q-31 0 -41 16t-4 50z" />
<glyph unicode="-" d="M20 278v58q0 13 8.5 21.5t21.5 8.5h368q13 0 21.5 -8.5t8.5 -21.5v-58q0 -13 -8.5 -21.5t-21.5 -8.5h-368q-13 0 -21.5 8.5t-8.5 21.5z" />
<glyph unicode="." horiz-adv-x="272" d="M40 61v31q0 32 17 49t49 17h60q32 0 49 -17t17 -49v-31q0 -31 -17 -48.5t-49 -17.5h-60q-32 0 -49 17.5t-17 48.5z" />
<glyph unicode="/" horiz-adv-x="515" d="M7 46l317 608q23 46 85 46h82q18 0 22.5 -14t-5.5 -32l-317 -608q-23 -46 -85 -46h-82q-18 0 -22.5 14t5.5 32z" />
<glyph unicode="0" horiz-adv-x="796" d="M30 350q0 98 27 168.5t76.5 110t110.5 57.5t137 18h34q76 0 137 -18t110.5 -57.5t76.5 -110t27 -168.5t-27 -168.5t-76.5 -110t-110.5 -57.5t-137 -18h-34q-76 0 -137 18t-110.5 57.5t-76.5 110t-27 168.5zM214 350q0 -216 184 -216t184 216t-184 216t-184 -216z" />
<glyph unicode="1" horiz-adv-x="390" d="M0 530q-16 22 10 44l119 103q26 23 72 23h72q20 0 33.5 -13.5t13.5 -32.5v-608q0 -19 -14 -32.5t-33 -13.5h-91q-19 0 -32.5 13t-13.5 32v472l-56 -41q-10 -7 -22.5 -4.5t-20.5 11.5z" />
<glyph unicode="2" horiz-adv-x="702" d="M30 46v71q0 62 25.5 107.5t65.5 71.5t89 44.5t98 30t89 23.5t65.5 31t25.5 46q0 55 -28.5 75t-95.5 20h-35q-94 0 -124 -60q-22 -46 -66 -46h-58q-9 0 -19 3.5t-20.5 17t-10.5 33.5q0 56 42.5 100.5t106 67t132.5 22.5h66q65 0 115.5 -11t92 -36t64 -72t22.5 -114 q0 -57 -25.5 -100.5t-65.5 -69t-89 -44t-98 -30.5t-89 -23t-65.5 -27.5t-25.5 -38.5h405q20 0 33.5 -13.5t13.5 -32.5v-46q0 -19 -14 -32.5t-33 -13.5h-542q-19 0 -33 13.5t-14 32.5z" />
<glyph unicode="3" horiz-adv-x="723" d="M25 191q0 29 17 41.5t33 12.5h58q45 0 70 -54q27 -57 120 -57h70q60 0 88 17t28 58t-28 58t-88 17h-88q-19 0 -32.5 13.5t-13.5 32.5v40q0 18 13 32t31 14h72q65 0 94.5 17t29.5 58t-29.5 58t-94.5 17h-36q-94 0 -124 -60q-22 -46 -66 -46h-58q-9 0 -19 3.5t-20.5 17 t-10.5 33.5q0 56 42.5 100.5t106 67t132.5 22.5h67q294 0 294 -214q0 -89 -67 -140q77 -48 77 -141q0 -113 -72 -163t-211 -50h-104q-109 0 -195 54t-86 141z" />
<glyph unicode="4" horiz-adv-x="760" d="M10 169v58q0 43 30 76l323 367q27 30 76 30h153q20 0 33.5 -13.5t13.5 -32.5v-393h54q20 0 33.5 -13.5t13.5 -32.5v-46q0 -19 -14 -32.5t-33 -13.5h-54v-77q0 -19 -14 -32.5t-33 -13.5h-91q-19 0 -32.5 13t-13.5 32v78h-398q-19 0 -33 13.5t-14 32.5zM206 261h249v283z " />
<glyph unicode="5" horiz-adv-x="725" d="M40 169q0 29 17 41.5t33 12.5h58q41 0 66 -46q24 -43 104 -43h77q60 0 88 19t28 65t-28 65t-88 19h-284q-19 0 -32.5 13t-13.5 32v307q0 20 13.5 33t32.5 13h503q20 0 33 -13t13 -33v-46q0 -20 -13 -33t-33 -13h-365v-122h163q139 0 211 -52t72 -170t-72 -170t-211 -52 h-111q-110 0 -185.5 49.5t-75.5 123.5z" />
<glyph unicode="6" horiz-adv-x="743" d="M40 236v216q0 139 70.5 195.5t210.5 56.5h124q110 0 183.5 -48.5t73.5 -121.5q0 -29 -17 -41.5t-33 -12.5h-58q-38 0 -66 46q-24 40 -100 40h-90q-60 0 -87 -24t-27 -90v-18h206q139 0 211 -50.5t72 -168.5t-72 -168.5t-211 -50.5h-107q-141 0 -212 54t-71 186zM224 236 q0 -60 27 -81t89 -21h73q60 0 88 17.5t28 63.5t-28 63.5t-88 17.5h-189v-60z" />
<glyph unicode="7" horiz-adv-x="637" d="M10 608v46q0 19 14 32.5t33 13.5h523q19 0 33 -13.5t14 -32.5v-45q0 -34 -30 -89l-256 -474q-25 -46 -64 -46h-100q-20 0 -28 13t0 28l282 521h-374q-20 0 -33.5 13.5t-13.5 32.5z" />
<glyph unicode="8" horiz-adv-x="756" d="M30 210q0 112 94 162q-66 54 -66 129q0 54 22 94.5t61 63.5t86.5 34t104.5 11h92q57 0 104.5 -11t86.5 -34t61 -63.5t22 -94.5q0 -75 -66 -129q94 -50 94 -162q0 -103 -78 -158.5t-201 -55.5h-138q-123 0 -201 55.5t-78 158.5zM214 211q0 -43 28 -60t88 -17h96 q60 0 88 17t28 60t-28 60t-88 17h-96q-60 0 -88 -17t-28 -60zM236 494q0 -39 28 -55.5t88 -16.5h50q60 0 88 16.5t28 55.5t-28 55.5t-88 16.5h-50q-60 0 -88 -16.5t-28 -55.5z" />
<glyph unicode="9" horiz-adv-x="743" d="M30 485q0 118 72 168.5t211 50.5h107q141 0 212 -54t71 -186v-216q0 -139 -70.5 -195.5t-210.5 -56.5h-124q-110 0 -183.5 48.5t-73.5 121.5q0 29 17 41.5t33 12.5h58q38 0 66 -46q24 -40 100 -40h90q60 0 87 24t27 90v18h-206q-139 0 -211 50.5t-72 168.5zM214 485 q0 -46 28 -63.5t88 -17.5h189v60q0 60 -27 81t-89 21h-73q-60 0 -88 -17.5t-28 -63.5z" />
<glyph unicode=":" horiz-adv-x="272" d="M40 61v31q0 32 17 49t49 17h60q32 0 49 -17t17 -49v-31q0 -31 -17 -48.5t-49 -17.5h-60q-32 0 -49 17.5t-17 48.5zM40 448v31q0 31 17 48.5t49 17.5h60q32 0 49 -17.5t17 -48.5v-31q0 -32 -17 -49t-49 -17h-60q-32 0 -49 17t-17 49z" />
<glyph unicode=";" horiz-adv-x="274" d="M23 -55l29 157q4 23 26.5 39.5t47.5 16.5h40q39 0 54.5 -20.5t1.5 -55.5l-58 -147q-10 -24 -30.5 -40t-46.5 -16h-19q-31 0 -41 16t-4 50zM42 448v31q0 31 17 48.5t49 17.5h60q32 0 49 -17.5t17 -48.5v-31q0 -32 -17 -49t-49 -17h-60q-32 0 -49 17t-17 49z" />
<glyph unicode="&#x3c;" horiz-adv-x="420" d="M30 255v24q0 32 29 53l278 197q17 11 30 4.5t13 -24.5v-84q0 -36 -43 -66l-130 -92l130 -92q43 -30 43 -66v-84q0 -18 -13 -24.5t-30 4.5l-278 197q-29 21 -29 53z" />
<glyph unicode="=" horiz-adv-x="488" d="M30 173v58q0 13 8.5 21.5t21.5 8.5h368q13 0 21.5 -8.5t8.5 -21.5v-58q0 -13 -8.5 -21.5t-21.5 -8.5h-368q-13 0 -21.5 8.5t-8.5 21.5zM30 379v58q0 13 8.5 21.5t21.5 8.5h368q13 0 21.5 -8.5t8.5 -21.5v-58q0 -13 -8.5 -21.5t-21.5 -8.5h-368q-13 0 -21.5 8.5t-8.5 21.5 z" />
<glyph unicode="&#x3e;" horiz-adv-x="420" d="M40 25v84q0 36 43 66l130 92l-130 92q-43 30 -43 66v84q0 18 13 24.5t30 -4.5l278 -197q29 -21 29 -53v-24q0 -32 -29 -53l-278 -197q-17 -11 -30 -4.5t-13 24.5z" />
<glyph unicode="?" horiz-adv-x="655" d="M20 514q0 83 84 136.5t184 53.5h56q281 0 281 -218q0 -49 -23.5 -85t-57.5 -55t-68 -34t-57.5 -33t-23.5 -41q0 -13 -8.5 -21.5t-21.5 -8.5h-110q-13 0 -21.5 8.5t-8.5 21.5q0 42 16 74t40 50.5t52 34.5t52 27t40 27t16 35q0 42 -26.5 61t-84.5 19h-25q-81 0 -111 -60 q-22 -46 -66 -46h-58q-9 0 -19 3.5t-20.5 17t-10.5 33.5zM215 61v31q0 32 17.5 49t48.5 17h60q31 0 48.5 -17t17.5 -49v-31q0 -31 -17.5 -48.5t-48.5 -17.5h-60q-31 0 -48.5 17.5t-17.5 48.5z" />
<glyph unicode="@" horiz-adv-x="830" d="M30 320q0 183 106.5 286.5t288.5 103.5q175 0 275 -81.5t100 -254.5q0 -106 -57.5 -173t-173.5 -67h-47q-9 0 -15 6t-6 14v11q-52 -37 -121 -37q-70 0 -114 30.5t-44 86.5q0 55 44 85t114 30h110q0 39 -16 54.5t-52 15.5q-45 0 -65 -22q-12 -18 -38 -18h-50q-8 0 -14 5.5 t-6 14.5q0 96 182 96q79 0 127.5 -36t48.5 -110v-131q68 0 68 145q0 117 -66 172.5t-184 55.5q-127 0 -198.5 -77.5t-71.5 -204.5t72 -204.5t198 -77.5q66 0 106 7.5t50 7.5h14q13 0 21.5 -9.5t8.5 -22.5v-46q0 -11 -8.5 -19.5t-21.5 -10.5q-75 -15 -170 -15 q-182 0 -288.5 103.5t-106.5 286.5zM337 245q0 -19 14.5 -30.5t40.5 -11.5q52 0 98 30v52h-101q-24 0 -38 -11.5t-14 -28.5z" />
<glyph unicode="A" horiz-adv-x="834" d="M12 45l123 465q50 190 324 190h263q18 0 30 -13.5t12 -31.5v-610q0 -19 -13.5 -32t-32.5 -13h-92q-20 0 -33 13t-13 33v123h-347l-33 -123q-5 -20 -22 -33t-36 -13h-96q-19 0 -29 13t-5 32zM269 307h311v255h-139q-47 0 -82 -26.5t-47 -71.5z" />
<glyph unicode="B" horiz-adv-x="825" d="M70 46v608q0 19 13.5 32.5t32.5 13.5h397q67 0 122 -18.5t93.5 -65t38.5 -115.5q0 -75 -66 -129q94 -50 94 -162q0 -100 -75 -155t-184 -55h-420q-19 0 -32.5 13.5t-13.5 32.5zM254 132h279q38 0 58 22.5t20 61.5t-20 61.5t-58 22.5h-279v-168zM254 428h261 q31 0 49.5 18.5t18.5 51.5t-18.5 51.5t-49.5 18.5h-261v-140z" />
<glyph unicode="C" horiz-adv-x="817" d="M30 350q0 181 90.5 267.5t271.5 86.5h109q111 0 196 -57.5t85 -157.5q0 -29 -17 -41.5t-33 -12.5h-58q-45 0 -70 54q-36 77 -120 77h-87q-107 0 -145 -46t-38 -170t38 -170t145 -46h97q84 0 120 77q25 54 70 54h58q9 0 19 -3.5t20.5 -17t10.5 -33.5q0 -100 -85 -157.5 t-196 -57.5h-119q-181 0 -271.5 86.5t-90.5 267.5z" />
<glyph unicode="D" horiz-adv-x="824" d="M70 45v608q0 20 13.5 33.5t32.5 13.5h273q212 0 308.5 -84.5t96.5 -265.5t-96.5 -265.5t-308.5 -84.5h-273q-19 0 -32.5 13t-13.5 32zM254 138h130q131 0 178.5 48t47.5 164t-47.5 164t-178.5 48h-130v-424z" />
<glyph unicode="E" horiz-adv-x="745" d="M70 47v608q0 19 13.5 32t32.5 13h563q19 0 32.5 -13.5t13.5 -32.5v-46q0 -19 -13.5 -32.5t-32.5 -13.5h-425v-142h366q19 0 32.5 -13.5t13.5 -32.5v-46q0 -19 -13.5 -32.5t-32.5 -13.5h-366v-144h424q19 0 32 -13t13 -32v-47q0 -19 -13.5 -32.5t-32.5 -13.5h-561 q-19 0 -32.5 13.5t-13.5 33.5z" />
<glyph unicode="F" horiz-adv-x="735" d="M70 47v608q0 19 13.5 32t32.5 13h563q19 0 32.5 -13.5t13.5 -32.5v-46q0 -19 -13.5 -32.5t-32.5 -13.5h-425v-172h346q19 0 32.5 -13.5t13.5 -32.5v-46q0 -19 -13.5 -32.5t-32.5 -13.5h-346v-205q0 -20 -13.5 -33.5t-32.5 -13.5h-92q-19 0 -32.5 13.5t-13.5 33.5z" />
<glyph unicode="G" horiz-adv-x="828" d="M30 350q0 181 90.5 267.5t271.5 86.5h109q108 0 194.5 -51.5t86.5 -128.5q0 -29 -17 -41.5t-33 -12.5h-58q-42 0 -66 46q-26 50 -124 50h-87q-107 0 -145 -46t-38 -170q0 -122 34 -169t122 -47h100q79 0 112.5 30t34.5 86h-110q-19 0 -32.5 13.5t-13.5 32.5v38 q0 19 13.5 32.5t32.5 13.5h245q19 0 32.5 -13.5t13.5 -32.5v-54q0 -137 -82 -210.5t-241 -73.5h-110q-162 0 -248.5 87.5t-86.5 266.5z" />
<glyph unicode="H" horiz-adv-x="844" d="M70 46v608q0 19 13.5 32.5t33.5 13.5h91q19 0 32.5 -13.5t13.5 -32.5v-220h336v220q0 19 13.5 32.5t32.5 13.5h91q20 0 33.5 -13.5t13.5 -32.5v-608q0 -19 -14 -32.5t-33 -13.5h-91q-19 0 -32.5 13t-13.5 32v251h-336v-251q0 -19 -13.5 -32t-32.5 -13h-91q-19 0 -33 13.5 t-14 32.5z" />
<glyph unicode="I" horiz-adv-x="324" d="M70 45v609q0 19 13.5 32.5t32.5 13.5h91q20 0 33.5 -13.5t13.5 -32.5v-608q0 -19 -14 -32.5t-33 -13.5h-91q-19 0 -32.5 13t-13.5 32z" />
<glyph unicode="J" horiz-adv-x="552" d="M0 46v55q0 19 13 32.5t33 13.5h16q13 0 40 -4.5t42 -4.5h35q68 0 98.5 28t30.5 94v394q0 19 13.5 32.5t32.5 13.5h91q20 0 33.5 -13.5t13.5 -32.5v-393q0 -125 -83 -193t-225 -68h-138q-19 0 -32.5 13.5t-13.5 32.5z" />
<glyph unicode="K" horiz-adv-x="795" d="M70 47v607q0 19 13.5 33t32.5 14h92q19 0 32.5 -14t13.5 -33v-234h105q43 0 75.5 23.5t61.5 75.5l76 135q26 47 70 47h113q19 0 22.5 -13.5t-7.5 -33.5l-106 -192q-23 -42 -51.5 -69.5t-74.5 -38.5q32 -7 66 -40.5t60 -73.5l122 -194q12 -20 7 -33t-24 -13h-112 q-19 0 -41 13.5t-34 32.5l-86 136q-31 50 -62 75t-75 25h-105v-237q0 -19 -13.5 -32t-32.5 -13h-92q-19 0 -32.5 14t-13.5 33z" />
<glyph unicode="L" horiz-adv-x="735" d="M70 45v608q0 20 13.5 33.5t32.5 13.5h92q19 0 32.5 -13.5t13.5 -33.5v-515h425q19 0 32.5 -13.5t13.5 -32.5v-46q0 -19 -13.5 -32.5t-32.5 -13.5h-563q-19 0 -32.5 13t-13.5 32z" />
<glyph unicode="M" horiz-adv-x="1034" d="M70 47v606q0 20 13 33.5t32 13.5h199q19 0 36 -13.5t23 -32.5l144 -417l144 417q6 19 23 32.5t36 13.5h199q19 0 32 -13.5t13 -33.5v-606q0 -20 -13.5 -33.5t-32.5 -13.5h-88q-19 0 -32.5 13.5t-13.5 33.5v477l-172 -480q-7 -18 -24 -31t-36 -13h-70q-19 0 -36 13t-24 31 l-172 480v-477q0 -20 -13.5 -33.5t-32.5 -13.5h-88q-19 0 -32.5 13.5t-13.5 33.5z" />
<glyph unicode="N" horiz-adv-x="867" d="M70 46v608q0 19 13 32.5t32 13.5h144q17 0 36 -13.5t31 -32.5l295 -454v455q0 19 13.5 32t32.5 13h84q19 0 32.5 -13t13.5 -33v-608q0 -19 -13.5 -32.5t-32.5 -13.5h-162q-19 0 -39 13.5t-32 32.5l-270 419v-419q0 -19 -13.5 -32.5t-32.5 -13.5h-86q-19 0 -32.5 13.5 t-13.5 32.5z" />
<glyph unicode="O" horiz-adv-x="846" d="M30 350q0 190 100 277.5t293 87.5t293 -87.5t100 -277.5t-100 -277.5t-293 -87.5t-293 87.5t-100 277.5zM214 350q0 -116 49.5 -174.5t159.5 -58.5t159.5 58.5t49.5 174.5t-49.5 174.5t-159.5 58.5t-159.5 -58.5t-49.5 -174.5z" />
<glyph unicode="P" horiz-adv-x="803" d="M70 46v608q0 19 13 32.5t32 13.5h373q295 0 295 -272t-295 -272h-234v-110q0 -19 -13.5 -32.5t-32.5 -13.5h-92q-19 0 -32.5 13.5t-13.5 32.5zM254 294h178q82 0 124.5 27.5t42.5 106.5t-42.5 106.5t-124.5 27.5h-178v-268z" />
<glyph unicode="Q" horiz-adv-x="844" d="M30 355q0 186 100 273t293 87q195 0 294 -82.5t99 -267.5q0 -47 -9.5 -87.5t-28.5 -71.5t-29.5 -45t-28.5 -34h78q20 0 33 -13.5t13 -32.5v-40q0 -19 -13 -32.5t-33 -13.5h-375q-193 0 -293 87t-100 273zM214 355q0 -112 50 -170t159 -58q209 0 209 238 q0 111 -49.5 164.5t-159.5 53.5q-109 0 -159 -58t-50 -170z" />
<glyph unicode="R" horiz-adv-x="808" d="M70 46v608q0 19 13 32.5t32 13.5h403q112 0 183.5 -60t71.5 -162q0 -142 -184 -178q29 -11 54 -37t57 -76l89 -141q12 -20 7 -33t-24 -13h-117q-19 0 -41 13.5t-34 32.5l-83 130q-51 80 -124 80h-119v-210q0 -19 -13.5 -32.5t-32.5 -13.5h-92q-19 0 -32.5 13.5 t-13.5 32.5zM254 394h208q50 0 88.5 20t38.5 64t-38.5 64t-88.5 20h-208v-168z" />
<glyph unicode="S" horiz-adv-x="779" d="M30 176q0 29 17 41.5t33 12.5h58q44 0 66 -46q24 -50 104 -50h171q86 0 86 56q0 23 -29 39.5t-76 27.5t-103.5 22t-112.5 27.5t-103 39t-76 62t-29 92.5q0 98 70 151t240 53h124q100 0 180.5 -51.5t80.5 -128.5q0 -29 -17 -41.5t-33 -12.5h-58q-44 0 -66 46 q-24 50 -104 50h-147q-86 0 -86 -56q0 -31 54.5 -50.5t132.5 -34.5t155.5 -36t132 -69t54.5 -120q0 -98 -70 -151t-240 -53h-148q-100 0 -180.5 51.5t-80.5 128.5z" />
<glyph unicode="T" horiz-adv-x="732" d="M10 608v46q0 20 13 33t33 13h620q20 0 33 -13t13 -33v-46q0 -20 -13 -33t-33 -13h-218v-517q0 -19 -13.5 -32t-32.5 -13h-92q-19 0 -32.5 13t-13.5 32v517h-218q-20 0 -33 13t-13 33z" />
<glyph unicode="U" horiz-adv-x="824" d="M60 277v377q0 19 13.5 32.5t33.5 13.5h91q19 0 32.5 -13.5t13.5 -32.5v-378q0 -72 31.5 -107t97.5 -35h78q66 0 97.5 35t31.5 107v378q0 19 13.5 32.5t32.5 13.5h91q20 0 33.5 -13.5t13.5 -32.5v-377q0 -134 -78.5 -207.5t-229.5 -73.5h-88q-151 0 -229.5 73.5 t-78.5 207.5z" />
<glyph unicode="V" horiz-adv-x="798" d="M13 659q-7 15 4 28t28 13h107q38 0 58 -46l189 -421l189 421q20 46 58 46h107q17 0 28 -13t4 -28l-281 -609q-23 -50 -70 -50h-70q-47 0 -70 50z" />
<glyph unicode="W" horiz-adv-x="1120" d="M12 659q-6 16 4.5 28.5t27.5 12.5h107q19 0 35 -13t23 -33l129 -387l119 387q14 46 58 46h90q44 0 58 -46l119 -387l129 387q7 20 23 33t35 13h107q17 0 27.5 -12.5t4.5 -28.5l-218 -609q-18 -50 -70 -50h-71q-54 0 -70 50l-119 376l-119 -376q-16 -50 -70 -50h-71 q-52 0 -70 50z" />
<glyph unicode="X" horiz-adv-x="750" d="M20 46l246 314l-232 294q-14 18 -8.5 32t25.5 14h105q49 0 85 -46l134 -170l134 170q36 46 85 46h105q20 0 25.5 -14t-8.5 -32l-232 -294l246 -314q14 -18 8.5 -32t-25.5 -14h-104q-49 0 -85 46l-149 190l-149 -190q-36 -46 -85 -46h-104q-20 0 -25.5 14t8.5 32z" />
<glyph unicode="Y" horiz-adv-x="742" d="M18 654q-12 17 -7 31.5t24 14.5h93q55 0 85 -46l158 -244l158 244q30 46 85 46h93q19 0 24 -14.5t-7 -31.5l-261 -404v-205q0 -19 -13.5 -32t-32.5 -13h-92q-19 0 -32.5 13t-13.5 32v205z" />
<glyph unicode="Z" horiz-adv-x="717" d="M25 608v46q0 20 13.5 33t32.5 13h570q19 0 32.5 -13t13.5 -33v-55q0 -20 -8.5 -38.5t-16 -26.5t-21.5 -22l-384 -374h389q20 0 33 -13t13 -33v-46q0 -20 -13 -33t-33 -13h-567q-19 0 -32.5 13t-13.5 33v54q0 47 46 93l372 369h-380q-19 0 -32.5 13t-13.5 33z" />
<glyph unicode="[" horiz-adv-x="389" d="M70 -100v810q0 13 8.5 21.5t21.5 8.5h249q13 0 21.5 -8.5t8.5 -21.5v-53q0 -13 -8.5 -21.5t-21.5 -8.5h-120v-644h120q13 0 21.5 -8.5t8.5 -21.5v-53q0 -13 -8.5 -21.5t-21.5 -8.5h-249q-13 0 -21.5 8.5t-8.5 21.5z" />
<glyph unicode="\" horiz-adv-x="515" d="M7 654q-10 18 -5.5 32t22.5 14h82q62 0 85 -46l317 -608q10 -18 5.5 -32t-22.5 -14h-82q-62 0 -85 46z" />
<glyph unicode="]" horiz-adv-x="389" d="M10 -47q0 13 8.5 21.5t21.5 8.5h120v644h-120q-13 0 -21.5 8.5t-8.5 21.5v53q0 13 8.5 21.5t21.5 8.5h249q13 0 21.5 -8.5t8.5 -21.5v-810q0 -13 -8.5 -21.5t-21.5 -8.5h-249q-13 0 -21.5 8.5t-8.5 21.5v53z" />
<glyph unicode="^" horiz-adv-x="532" d="M7 420l157 237q29 43 66 43h72q37 0 66 -43l157 -237q11 -16 4.5 -29.5t-24.5 -13.5h-77q-38 0 -65 41l-97 146l-97 -146q-27 -41 -65 -41h-77q-18 0 -24.5 13.5t4.5 29.5z" />
<glyph unicode="_" horiz-adv-x="400" d="M0 -30q0 13 8.5 21.5t21.5 8.5h340q13 0 21.5 -8.5t8.5 -21.5v-58q0 -13 -8.5 -21.5t-21.5 -8.5h-340q-13 0 -21.5 8.5t-8.5 21.5v58z" />
<glyph unicode="`" horiz-adv-x="275" d="M29 624q-17 34 -0.5 55t56.5 21h40q24 0 45 -16.5t29 -39.5l51 -158q21 -66 -45 -66h-19q-47 0 -77 56z" />
<glyph unicode="a" horiz-adv-x="652" d="M30 162q0 82 64.5 126t166.5 44h162q0 57 -24 79.5t-76 22.5q-68 0 -95 -33q-21 -26 -56 -26h-73q-13 0 -21.5 8.5t-8.5 21.5q0 140 266 140q116 0 186.5 -52t70.5 -161v-302q0 -13 -8.5 -21.5t-21.5 -8.5h-94q-13 0 -21.5 8.5t-8.5 21.5v15q-77 -55 -177 -55 q-102 0 -166.5 45t-64.5 127zM199 162q0 -27 20.5 -44t58.5 -17q75 0 145 44v76h-150q-34 0 -54 -16.5t-20 -42.5z" />
<glyph unicode="b" horiz-adv-x="662" d="M60 45v625q0 13 8.5 21.5t21.5 8.5h109q13 0 21.5 -8.5t8.5 -21.5v-150q79 25 141 25q120 0 191 -71.5t71 -206.5q0 -277 -310 -277q-71 0 -147 16t-115 39zM229 119q42 -11 103 -11q69 0 97.5 37.5t28.5 121.5t-28 122t-95 38q-43 0 -106 -20v-288z" />
<glyph unicode="c" horiz-adv-x="621" d="M30 267q0 137 75.5 207.5t214.5 70.5q131 0 203.5 -43t72.5 -127q0 -13 -8.5 -21.5t-21.5 -8.5h-73q-33 0 -56 36q-29 46 -105 46q-70 0 -99 -37.5t-29 -122.5q0 -84 30 -121.5t103 -37.5q76 0 105 46q23 36 56 36h73q13 0 21.5 -8.5t8.5 -21.5q0 -84 -72.5 -127 t-203.5 -43q-143 0 -219 70.5t-76 206.5z" />
<glyph unicode="d" horiz-adv-x="662" d="M30 267q0 135 71 206.5t191 71.5q62 0 141 -25v150q0 13 8.5 21.5t21.5 8.5h109q13 0 21.5 -8.5t8.5 -21.5v-640q0 -13 -8.5 -21.5t-21.5 -8.5h-94q-13 0 -21.5 8.5t-8.5 21.5v15q-77 -55 -171 -55q-110 0 -178.5 72t-68.5 205zM204 267q0 -83 26.5 -121t86.5 -38 q46 0 116 44v255q-63 20 -106 20q-67 0 -95 -38t-28 -122z" />
<glyph unicode="e" horiz-adv-x="630" d="M30 267q0 134 75.5 206t209.5 72q135 0 210 -70t75 -201v-28q0 -13 -8.5 -21.5t-21.5 -8.5h-368q5 -60 34.5 -87.5t90.5 -27.5q69 0 96 33q21 26 56 26h73q13 0 21.5 -8.5t8.5 -21.5q0 -140 -267 -140q-135 0 -210 71.5t-75 205.5zM201 319h227q-5 115 -113 115 t-114 -115z" />
<glyph unicode="f" horiz-adv-x="480" d="M60 30v430q0 136 62 193t218 57q80 0 130 -10q13 -2 21.5 -10.5t8.5 -19.5v-54q0 -13 -8.5 -21.5t-21.5 -8.5h-18q-10 0 -32 4t-35 4q-97 0 -126.5 -26t-29.5 -108v-8h177q13 0 21.5 -8.5t8.5 -21.5v-58q0 -13 -8.5 -21.5t-21.5 -8.5h-177v-304q0 -13 -8.5 -21.5 t-21.5 -8.5h-109q-13 0 -21.5 8.5t-8.5 21.5z" />
<glyph unicode="g" horiz-adv-x="652" d="M30 291q0 121 77.5 187.5t222.5 66.5q71 0 147 -16t115 -39v-452q0 -109 -72 -161t-195 -52q-136 0 -206 32.5t-70 107.5q0 13 8.5 21.5t21.5 8.5h73q35 0 56 -26q27 -33 105 -33q59 0 84.5 22.5t25.5 79.5v23q-78 -20 -146 -20q-111 0 -179 67t-68 183zM204 291 q0 -132 113 -132q47 0 106 15v242q-42 11 -103 11q-116 0 -116 -136z" />
<glyph unicode="h" horiz-adv-x="682" d="M60 30v640q0 13 8.5 21.5t21.5 8.5h109q13 0 21.5 -8.5t8.5 -21.5v-196q84 71 171 71q103 0 162.5 -58t59.5 -177v-280q0 -13 -8.5 -21.5t-21.5 -8.5h-109q-13 0 -21.5 8.5t-8.5 21.5v280q0 117 -93 117q-61 0 -131 -70v-327q0 -13 -8.5 -21.5t-21.5 -8.5h-109 q-13 0 -21.5 8.5t-8.5 21.5z" />
<glyph unicode="i" horiz-adv-x="293" d="M60 637v17q0 26 15 41t41 15h61q26 0 41 -15t15 -41v-17q0 -26 -15 -41t-41 -15h-61q-26 0 -41 15t-15 41zM62 30v463q0 13 8.5 21.5t21.5 8.5h109q13 0 21.5 -8.5t8.5 -21.5v-463q0 -13 -8.5 -21.5t-21.5 -8.5h-109q-13 0 -21.5 8.5t-8.5 21.5z" />
<glyph unicode="j" horiz-adv-x="301" d="M-90 -82q0 13 8.5 21.5t21.5 8.5h15q9 0 24.5 -3.5t25.5 -3.5q27 0 46 27t19 87v438q0 13 8.5 21.5t21.5 8.5h109q13 0 21.5 -8.5t8.5 -21.5v-438q0 -230 -189 -230q-67 0 -110 10q-30 7 -30 30v53zM68 637v17q0 26 15 41t41 15h61q26 0 41 -15t15 -41v-17q0 -26 -15 -41 t-41 -15h-61q-26 0 -41 15t-15 41z" />
<glyph unicode="k" horiz-adv-x="610" d="M60 30v640q0 13 8.5 21.5t21.5 8.5h109q13 0 21.5 -8.5t8.5 -21.5v-347q85 0 116 66l47 100q10 21 29 33.5t41 12.5h92q38 0 17 -46l-63 -133q-16 -33 -44 -57t-60 -31q60 -18 104 -88l83 -134q12 -20 7 -33t-24 -13h-92q-47 0 -75 46l-62 101q-40 65 -116 65v-182 q0 -13 -8.5 -21.5t-21.5 -8.5h-109q-13 0 -21.5 8.5t-8.5 21.5z" />
<glyph unicode="l" horiz-adv-x="289" d="M60 30v640q0 13 8.5 21.5t21.5 8.5h109q13 0 21.5 -8.5t8.5 -21.5v-640q0 -13 -8.5 -21.5t-21.5 -8.5h-109q-13 0 -21.5 8.5t-8.5 21.5z" />
<glyph unicode="m" horiz-adv-x="1005" d="M60 30v475q0 13 8.5 21.5t21.5 8.5h109q13 0 21.5 -8.5t8.5 -21.5v-31q35 34 69 52.5t82 18.5q114 0 172 -94q91 94 186 94q96 0 151.5 -57.5t55.5 -177.5v-280q0 -13 -8.5 -21.5t-21.5 -8.5h-109q-13 0 -21.5 8.5t-8.5 21.5v280q0 117 -85 117q-52 0 -107 -75 q3 -21 3 -42v-280q0 -13 -8.5 -21.5t-21.5 -8.5h-109q-13 0 -21.5 8.5t-8.5 21.5v280q0 117 -85 117q-54 0 -104 -70v-327q0 -13 -8.5 -21.5t-21.5 -8.5h-109q-13 0 -21.5 8.5t-8.5 21.5z" />
<glyph unicode="n" horiz-adv-x="682" d="M60 30v475q0 13 8.5 21.5t21.5 8.5h109q13 0 21.5 -8.5t8.5 -21.5v-31q84 71 171 71q103 0 162.5 -58t59.5 -177v-280q0 -13 -8.5 -21.5t-21.5 -8.5h-109q-13 0 -21.5 8.5t-8.5 21.5v280q0 117 -93 117q-61 0 -131 -70v-327q0 -13 -8.5 -21.5t-21.5 -8.5h-109 q-13 0 -21.5 8.5t-8.5 21.5z" />
<glyph unicode="o" horiz-adv-x="650" d="M30 268q0 137 76 207t219 70t219 -70t76 -207t-76 -207.5t-219 -70.5t-219 70.5t-76 207.5zM199 268q0 -87 30.5 -127t95.5 -40t95.5 40t30.5 127t-30.5 126.5t-95.5 39.5t-95.5 -39.5t-30.5 -126.5z" />
<glyph unicode="p" horiz-adv-x="662" d="M60 -135v640q0 13 8.5 21.5t21.5 8.5h94q13 0 21.5 -8.5t8.5 -21.5v-15q77 55 171 55q110 0 178.5 -72t68.5 -205q0 -135 -71 -206.5t-191 -71.5q-62 0 -141 25v-150q0 -13 -8.5 -21.5t-21.5 -8.5h-109q-13 0 -21.5 8.5t-8.5 21.5zM229 128q63 -20 106 -20q67 0 95 38 t28 122q0 83 -26.5 121t-86.5 38q-46 0 -116 -44v-255z" />
<glyph unicode="q" horiz-adv-x="662" d="M30 268q0 277 310 277q71 0 147 -16t115 -39v-625q0 -13 -8.5 -21.5t-21.5 -8.5h-109q-13 0 -21.5 8.5t-8.5 21.5v150q-79 -25 -141 -25q-120 0 -191 71.5t-71 206.5zM204 268q0 -84 28 -122t95 -38q43 0 106 20v288q-42 11 -103 11q-69 0 -97.5 -37.5t-28.5 -121.5z" />
<glyph unicode="r" horiz-adv-x="486" d="M60 30v475q0 13 8.5 21.5t21.5 8.5h109q13 0 21.5 -8.5t8.5 -21.5v-31q50 36 96 53.5t121 17.5q13 0 21.5 -8.5t8.5 -21.5v-74q0 -13 -8.5 -21.5t-21.5 -8.5h-16q-11 0 -36.5 1.5t-38.5 1.5q-66 0 -126 -72v-312q0 -13 -8.5 -21.5t-21.5 -8.5h-109q-13 0 -21.5 8.5 t-8.5 21.5z" />
<glyph unicode="s" horiz-adv-x="598" d="M30 387q0 80 70 119t184 39q268 0 268 -140q0 -13 -8.5 -21.5t-21.5 -8.5h-73q-35 0 -56 26q-27 33 -97 33q-97 0 -97 -47q0 -22 38 -36.5t92.5 -25.5t108.5 -28t92 -54.5t38 -94.5q0 -81 -72.5 -119.5t-196.5 -38.5q-268 0 -268 140q0 13 8.5 21.5t21.5 8.5h73 q35 0 56 -26q27 -33 97 -33q112 0 112 47q0 22 -38 36.5t-92.5 26t-108.5 28.5t-92 54.5t-38 93.5z" />
<glyph unicode="t" horiz-adv-x="450" d="M60 210v460q0 13 8.5 21.5t21.5 8.5h109q13 0 21.5 -8.5t8.5 -21.5v-163h136q13 0 21.5 -8.5t8.5 -21.5v-58q0 -13 -8.5 -21.5t-21.5 -8.5h-136v-179q0 -50 23.5 -77t62.5 -27q13 0 35 3t32 3h18q13 0 21.5 -8.5t8.5 -21.5v-52q0 -11 -8.5 -19.5t-21.5 -10.5 q-50 -10 -130 -10q-210 0 -210 220z" />
<glyph unicode="u" horiz-adv-x="682" d="M60 225v280q0 13 8.5 21.5t21.5 8.5h109q13 0 21.5 -8.5t8.5 -21.5v-280q0 -117 93 -117q61 0 131 70v327q0 13 8.5 21.5t21.5 8.5h109q13 0 21.5 -8.5t8.5 -21.5v-475q0 -13 -8.5 -21.5t-21.5 -8.5h-109q-13 0 -21.5 8.5t-8.5 21.5v31q-84 -71 -171 -71 q-103 0 -162.5 58t-59.5 177z" />
<glyph unicode="v" horiz-adv-x="656" d="M15 492q-8 18 -2.5 30.5t22.5 12.5h94q21 0 39.5 -12t26.5 -31l133 -304l133 304q8 19 26.5 31t39.5 12h94q17 0 22.5 -12.5t-2.5 -30.5l-211 -449q-9 -19 -27.5 -31t-38.5 -12h-72q-20 0 -38.5 12t-27.5 31z" />
<glyph unicode="w" horiz-adv-x="898" d="M14 492q-14 43 20 43h91q23 0 41 -11.5t25 -31.5l80 -263l79 263q13 43 56 43h86q43 0 56 -43l79 -263l80 263q7 20 25 31.5t41 11.5h91q34 0 20 -43l-148 -449q-7 -20 -24.5 -31.5t-37.5 -11.5h-69q-20 0 -38 12t-24 31l-94 291l-94 -291q-6 -19 -24 -31t-38 -12h-69 q-20 0 -37.5 11.5t-24.5 31.5z" />
<glyph unicode="x" horiz-adv-x="624" d="M23 43l170 225l-159 224q-7 10 -7.5 19.5t5.5 16.5t17 7h106q47 0 76 -43l81 -123l81 123q29 43 76 43h106q11 0 17 -7t5.5 -16.5t-7.5 -19.5l-159 -224l170 -225q11 -13 6.5 -28t-21.5 -15h-104q-45 0 -76 43l-94 127l-94 -127q-31 -43 -76 -43h-104q-17 0 -21.5 15 t6.5 28z" />
<glyph unicode="y" horiz-adv-x="632" d="M17 506q-4 11 3.5 20t19.5 9h102q14 0 27 -9.5t17 -23.5l64 -207q24 -76 48.5 -105.5t58.5 -29.5l97 342q4 14 15.5 23.5t25.5 9.5h103q12 0 19 -9t4 -20l-128 -456q-34 -121 -84.5 -173t-135.5 -52q-74 0 -127 10q-13 2 -21.5 10.5t-8.5 19.5v54q0 13 8.5 21.5t21.5 8.5 h18q11 0 31.5 -4t32.5 -4q69 0 96 101q-83 0 -138.5 50t-95.5 178z" />
<glyph unicode="z" horiz-adv-x="559" d="M25 30v47q0 36 35 71l257 269h-262q-13 0 -21.5 8.5t-8.5 21.5v58q0 13 8.5 21.5t21.5 8.5h445q13 0 21.5 -8.5t8.5 -21.5v-47q0 -36 -35 -71l-266 -269h275q13 0 21.5 -8.5t8.5 -21.5v-58q0 -13 -8.5 -21.5t-21.5 -8.5h-449q-13 0 -21.5 8.5t-8.5 21.5z" />
<glyph unicode="{" horiz-adv-x="421" d="M20 276v58q0 13 8.5 21.5t21.5 8.5h20q23 0 39.5 17.5t16.5 43.5v121q0 100 57 147t150 47h48q13 0 21.5 -8.5t8.5 -21.5v-53q0 -13 -8.5 -21.5t-21.5 -8.5h-20q-32 0 -55 -25t-23 -67v-95q0 -56 -30.5 -91t-79.5 -44q49 -9 79.5 -44t30.5 -91v-95q0 -42 23 -67t55 -25 h20q13 0 21.5 -8.5t8.5 -21.5v-53q0 -13 -8.5 -21.5t-21.5 -8.5h-48q-93 0 -150 47t-57 147v121q0 26 -16.5 43.5t-39.5 17.5h-20q-13 0 -21.5 8.5t-8.5 21.5z" />
<glyph unicode="|" horiz-adv-x="309" d="M70 -135v805q0 13 8.5 21.5t21.5 8.5h109q13 0 21.5 -8.5t8.5 -21.5v-805q0 -13 -8.5 -21.5t-21.5 -8.5h-109q-13 0 -21.5 8.5t-8.5 21.5z" />
<glyph unicode="}" horiz-adv-x="421" d="M10 -47q0 13 8.5 21.5t21.5 8.5h20q32 0 55 25t23 67v95q0 56 30.5 91t79.5 44q-49 9 -79.5 44t-30.5 91v95q0 42 -23 67t-55 25h-20q-13 0 -21.5 8.5t-8.5 21.5v53q0 13 8.5 21.5t21.5 8.5h48q93 0 150 -47t57 -147v-121q0 -26 16.5 -43.5t39.5 -17.5h20q13 0 21.5 -8.5 t8.5 -21.5v-58q0 -13 -8.5 -21.5t-21.5 -8.5h-20q-23 0 -39.5 -17.5t-16.5 -43.5v-121q0 -100 -57 -147t-150 -47h-48q-13 0 -21.5 8.5t-8.5 21.5v53z" />
<glyph unicode="~" horiz-adv-x="594" d="M30 271q0 66 39 102.5t107 36.5q59 0 116.5 -25t93.5 -25q37 0 59 18.5t46 18.5h48q11 0 18 -7.5t7 -17.5q0 -66 -39 -102.5t-107 -36.5q-59 0 -116.5 25t-93.5 25q-37 0 -59 -18.5t-46 -18.5h-48q-11 0 -18 7t-7 18z" />
<glyph unicode="&#xa9;" horiz-adv-x="850" d="M30 320q0 183 106.5 286.5t288.5 103.5t288.5 -103.5t106.5 -286.5t-106.5 -286.5t-288.5 -103.5t-288.5 103.5t-106.5 286.5zM152 320q0 -131 71.5 -208t201.5 -77t201.5 77t71.5 208t-71.5 208t-201.5 77t-201.5 -77t-71.5 -208zM235 319q0 89 49 135t139 46 q85 0 132 -28t47 -83q0 -8 -6 -13.5t-14 -5.5h-47q-21 0 -36 23q-18 30 -68 30q-46 0 -64.5 -24.5t-18.5 -79.5t19 -79t67 -24q49 0 68 30q14 24 36 24h48q8 0 13.5 -6t5.5 -14q0 -55 -46.5 -82.5t-132.5 -27.5q-93 0 -142 45.5t-49 133.5z" />
<glyph unicode="&#xab;" horiz-adv-x="498" d="M20 262v24q0 20 19 45l100 128q17 22 40 22h60q15 0 18 -11.5t-8 -28.5l-102 -167l102 -167q11 -17 8 -28.5t-18 -11.5h-60q-23 0 -40 22l-100 128q-19 25 -19 45zM240 262v24q0 20 19 45l100 128q17 22 40 22h60q15 0 18 -11.5t-8 -28.5l-102 -167l102 -167 q11 -17 8 -28.5t-18 -11.5h-60q-23 0 -40 22l-100 128q-19 25 -19 45z" />
<glyph unicode="&#xad;" d="M20 278v58q0 13 8.5 21.5t21.5 8.5h368q13 0 21.5 -8.5t8.5 -21.5v-58q0 -13 -8.5 -21.5t-21.5 -8.5h-368q-13 0 -21.5 8.5t-8.5 21.5z" />
<glyph unicode="&#xae;" horiz-adv-x="850" d="M30 320q0 183 106.5 286.5t288.5 103.5t288.5 -103.5t106.5 -286.5t-106.5 -286.5t-288.5 -103.5t-288.5 103.5t-106.5 286.5zM152 320q0 -131 71.5 -208t201.5 -77t201.5 77t71.5 208t-71.5 208t-201.5 77t-201.5 -77t-71.5 -208zM251 164v314q0 10 7 16.5t17 6.5h211 q58 0 95.5 -31t37.5 -83q0 -74 -96 -92q26 -10 58 -58l47 -73q14 -24 -9 -24h-61q-25 0 -40 24l-43 67q-27 41 -65 41h-63v-108q0 -10 -7 -17t-17 -7h-48q-10 0 -17 7t-7 17zM347 343h109q27 0 47 10.5t20 33.5t-20 33t-47 10h-109v-87z" />
<glyph unicode="&#xbb;" horiz-adv-x="498" d="M29 107l102 167l-102 167q-11 17 -8 28.5t18 11.5h60q23 0 40 -22l100 -128q19 -25 19 -45v-24q0 -20 -19 -45l-100 -128q-17 -22 -40 -22h-60q-15 0 -18 11.5t8 28.5zM249 107l102 167l-102 167q-11 17 -8 28.5t18 11.5h60q23 0 40 -22l100 -128q19 -25 19 -45v-24 q0 -20 -19 -45l-100 -128q-17 -22 -40 -22h-60q-15 0 -18 11.5t8 28.5z" />
<glyph unicode="&#x401;" horiz-adv-x="745" d="M70 47v608q0 19 13.5 32t32.5 13h563q19 0 32.5 -13.5t13.5 -32.5v-46q0 -19 -13.5 -32.5t-32.5 -13.5h-425v-142h366q19 0 32.5 -13.5t13.5 -32.5v-46q0 -19 -13.5 -32.5t-32.5 -13.5h-366v-144h424q19 0 32 -13t13 -32v-47q0 -19 -13.5 -32.5t-32.5 -13.5h-561 q-19 0 -32.5 13.5t-13.5 33.5zM193 808v19q0 26 15 41t41 15h47q26 0 41 -15t15 -41v-19q0 -26 -15 -41t-41 -15h-47q-26 0 -41 15t-15 41zM438 808v19q0 26 15 41t41 15h47q26 0 41 -15t15 -41v-19q0 -26 -15 -41t-41 -15h-47q-26 0 -41 15t-15 41z" />
<glyph unicode="&#x402;" horiz-adv-x="767" d="M10 594v76q0 13 8.5 21.5t21.5 8.5h312q13 0 21.5 -8.5t8.5 -21.5v-76q0 -13 -8.5 -21.5t-21.5 -8.5h-64v-144q71 61 176 61q126 0 204.5 -64t78.5 -192v-25q0 -210 -203 -210q-80 0 -110 5q-13 2 -21.5 10.5t-8.5 19.5v63q0 13 8.5 21.5t21.5 8.5h15q9 0 24.5 -3.5 t25.5 -3.5q25 0 44.5 23t19.5 66v25q0 118 -126 118q-89 0 -149 -70v-227q0 -19 -13.5 -32.5t-32.5 -13.5h-91q-20 0 -33.5 13.5t-13.5 32.5v518h-64q-13 0 -21.5 8.5t-8.5 21.5z" />
<glyph unicode="&#x403;" horiz-adv-x="644" d="M70 45v609q0 20 13 33t33 13h472q20 0 33 -13t13 -33v-46q0 -20 -13 -33t-33 -13h-334v-517q0 -19 -13.5 -32t-32.5 -13h-92q-19 0 -32.5 13t-13.5 32zM285 806l39 129q7 23 28.5 39.5t45.5 16.5h40q40 0 57 -21.5t-1 -54.5l-68 -119q-32 -56 -77 -56h-19q-65 0 -45 66z " />
<glyph unicode="&#x404;" horiz-adv-x="817" d="M30 350q0 181 90.5 267.5t271.5 86.5h109q70 0 133 -23t105.5 -71t42.5 -111q0 -29 -17 -41.5t-33 -12.5h-58q-44 0 -70 54q-33 67 -120 67h-87q-93 0 -134 -33.5t-46 -115.5h262q19 0 32.5 -13.5t13.5 -32.5v-41q0 -19 -13.5 -32.5t-32.5 -13.5h-262q4 -83 45.5 -116.5 t134.5 -33.5h97q87 0 120 67q26 54 70 54h58q9 0 19 -3.5t20.5 -17t10.5 -33.5q0 -63 -42.5 -111t-105.5 -71t-133 -23h-119q-181 0 -271.5 86.5t-90.5 267.5z" />
<glyph unicode="&#x405;" horiz-adv-x="779" d="M30 176q0 29 17 41.5t33 12.5h58q44 0 66 -46q24 -50 104 -50h171q86 0 86 56q0 23 -29 39.5t-76 27.5t-103.5 22t-112.5 27.5t-103 39t-76 62t-29 92.5q0 98 70 151t240 53h124q100 0 180.5 -51.5t80.5 -128.5q0 -29 -17 -41.5t-33 -12.5h-58q-44 0 -66 46 q-24 50 -104 50h-147q-86 0 -86 -56q0 -31 54.5 -50.5t132.5 -34.5t155.5 -36t132 -69t54.5 -120q0 -98 -70 -151t-240 -53h-148q-100 0 -180.5 51.5t-80.5 128.5z" />
<glyph unicode="&#x406;" horiz-adv-x="324" d="M70 45v609q0 19 13.5 32.5t32.5 13.5h91q20 0 33.5 -13.5t13.5 -32.5v-608q0 -19 -14 -32.5t-33 -13.5h-91q-19 0 -32.5 13t-13.5 32z" />
<glyph unicode="&#x407;" horiz-adv-x="324" d="M-20 808v19q0 26 15 41t41 15h39q26 0 41 -15t15 -41v-19q0 -26 -15 -41t-41 -15h-39q-26 0 -41 15t-15 41zM70 45v609q0 19 13.5 32.5t32.5 13.5h91q20 0 33.5 -13.5t13.5 -32.5v-608q0 -19 -14 -32.5t-33 -13.5h-91q-19 0 -32.5 13t-13.5 32zM193 808v19q0 26 15 41 t41 15h39q26 0 41 -15t15 -41v-19q0 -26 -15 -41t-41 -15h-39q-26 0 -41 15t-15 41z" />
<glyph unicode="&#x408;" horiz-adv-x="552" d="M0 46v55q0 19 13 32.5t33 13.5h16q13 0 40 -4.5t42 -4.5h35q68 0 98.5 28t30.5 94v394q0 19 13.5 32.5t32.5 13.5h91q20 0 33.5 -13.5t13.5 -32.5v-393q0 -125 -83 -193t-225 -68h-138q-19 0 -32.5 13.5t-13.5 32.5z" />
<glyph unicode="&#x409;" horiz-adv-x="1235" d="M12 41l124 469q50 190 324 190h229q17 0 29 -14t12 -32v-192h219q115 0 190.5 -61t75.5 -170t-75.5 -170t-190.5 -61h-357q-19 0 -32.5 13.5t-13.5 32.5v516h-104q-47 0 -82 -26.5t-47 -71.5l-112 -418q-5 -20 -22 -33t-36 -13h-99q-17 0 -26.5 12.5t-5.5 28.5zM730 138 h219q82 0 82 93t-82 93h-219v-186z" />
<glyph unicode="&#x40a;" horiz-adv-x="1248" d="M70 46v608q0 19 13.5 32.5t33.5 13.5h91q19 0 32.5 -13.5t13.5 -32.5v-210h304v210q0 19 13.5 32.5t32.5 13.5h91q20 0 33.5 -13.5t13.5 -32.5v-210h220q114 0 190 -59.5t76 -162.5t-76 -162.5t-190 -59.5h-358q-19 0 -32.5 13t-13.5 32v261h-304v-261q0 -19 -13.5 -32 t-32.5 -13h-91q-19 0 -33 13.5t-14 32.5zM742 138h220q41 0 61.5 22.5t20.5 61.5t-20.5 61.5t-61.5 22.5h-220v-168z" />
<glyph unicode="&#x40b;" horiz-adv-x="777" d="M10 594v76q0 13 8.5 21.5t21.5 8.5h312q13 0 21.5 -8.5t8.5 -21.5v-76q0 -13 -8.5 -21.5t-21.5 -8.5h-64v-144q71 61 176 61q126 0 204.5 -64t78.5 -192v-179q0 -19 -14 -32.5t-33 -13.5h-91q-19 0 -32.5 13.5t-13.5 32.5v179q0 118 -126 118q-89 0 -149 -70v-227 q0 -19 -13.5 -32.5t-32.5 -13.5h-91q-20 0 -33.5 13.5t-13.5 32.5v518h-64q-13 0 -21.5 8.5t-8.5 21.5z" />
<glyph unicode="&#x40c;" horiz-adv-x="795" d="M70 47v607q0 19 13.5 33t32.5 14h92q19 0 32.5 -14t13.5 -33v-234h105q43 0 75.5 23.5t61.5 75.5l76 135q26 47 70 47h113q19 0 22.5 -13.5t-7.5 -33.5l-106 -192q-23 -42 -51.5 -69.5t-74.5 -38.5q32 -7 66 -40.5t60 -73.5l122 -194q12 -20 7 -33t-24 -13h-112 q-19 0 -41 13.5t-34 32.5l-86 136q-31 50 -62 75t-75 25h-105v-237q0 -19 -13.5 -32t-32.5 -13h-92q-19 0 -32.5 14t-13.5 33zM350 786l39 129q7 23 28.5 39.5t45.5 16.5h40q40 0 57 -21.5t-1 -54.5l-68 -119q-32 -56 -77 -56h-19q-65 0 -45 66z" />
<glyph unicode="&#x40e;" horiz-adv-x="779" d="M14 654q-8 19 0 32.5t27 13.5h103q47 0 65 -44l56 -136q25 -59 62.5 -88t99.5 -29h60l88 252q7 21 24 33t37 12h99q19 0 28 -13t3 -31l-159 -456q-33 -96 -100 -148t-187 -52h-118q-19 0 -32.5 13.5t-13.5 32.5v55q0 19 13 32.5t33 13.5h16q13 0 40 -4.5t42 -4.5h10 q97 0 133 127h-42q-123 0 -192 50t-118 163zM243 880q0 25 27 25h40q24 0 34 -25q14 -35 63 -35t63 35q10 25 34 25h40q27 0 27 -25q0 -67 -45 -106t-119 -39t-119 39t-45 106z" />
<glyph unicode="&#x40f;" horiz-adv-x="865" d="M70 46v608q0 19 13.5 32.5t32.5 13.5h92q19 0 32.5 -13.5t13.5 -32.5v-516h357v516q0 19 13.5 32.5t32.5 13.5h91q19 0 33 -13.5t14 -32.5v-608q0 -19 -13.5 -32.5t-32.5 -13.5h-234v-134q0 -19 -14 -32.5t-33 -13.5h-72q-19 0 -32.5 13.5t-13.5 32.5v134h-235 q-19 0 -32 13.5t-13 32.5z" />
<glyph unicode="&#x410;" horiz-adv-x="834" d="M12 45l123 465q50 190 324 190h263q18 0 30 -13.5t12 -31.5v-610q0 -19 -13.5 -32t-32.5 -13h-92q-20 0 -33 13t-13 33v123h-347l-33 -123q-5 -20 -22 -33t-36 -13h-96q-19 0 -29 13t-5 32zM269 307h311v255h-139q-47 0 -82 -26.5t-47 -71.5z" />
<glyph unicode="&#x411;" horiz-adv-x="791" d="M70 45v609q0 20 13 33t33 13h550q19 0 32.5 -13.5t13.5 -32.5v-46q0 -19 -13 -32.5t-32 -13.5h-413v-118h241q119 0 192.5 -56t73.5 -166t-73.5 -166t-192.5 -56h-381q-19 0 -31.5 13t-12.5 32zM254 138h241q82 0 82 84t-82 84h-241v-168z" />
<glyph unicode="&#x412;" horiz-adv-x="825" d="M70 46v608q0 19 13.5 32.5t32.5 13.5h397q67 0 122 -18.5t93.5 -65t38.5 -115.5q0 -75 -66 -129q94 -50 94 -162q0 -100 -75 -155t-184 -55h-420q-19 0 -32.5 13.5t-13.5 32.5zM254 132h279q38 0 58 22.5t20 61.5t-20 61.5t-58 22.5h-279v-168zM254 428h261 q31 0 49.5 18.5t18.5 51.5t-18.5 51.5t-49.5 18.5h-261v-140z" />
<glyph unicode="&#x413;" horiz-adv-x="644" d="M70 45v609q0 20 13 33t33 13h472q20 0 33 -13t13 -33v-46q0 -20 -13 -33t-33 -13h-334v-517q0 -19 -13.5 -32t-32.5 -13h-92q-19 0 -32.5 13t-13.5 32z" />
<glyph unicode="&#x414;" horiz-adv-x="872" d="M0 46v47q0 19 13.5 32t32.5 13h38l91 370q47 192 317 192h264q19 0 32.5 -13t13.5 -32v-610q0 -19 -13.5 -32t-32.5 -13h-710q-19 0 -32.5 13.5t-13.5 32.5zM272 138h346v424h-146q-46 0 -76.5 -25.5t-41.5 -70.5z" />
<glyph unicode="&#x415;" horiz-adv-x="745" d="M70 47v608q0 19 13.5 32t32.5 13h563q19 0 32.5 -13.5t13.5 -32.5v-46q0 -19 -13.5 -32.5t-32.5 -13.5h-425v-142h366q19 0 32.5 -13.5t13.5 -32.5v-46q0 -19 -13.5 -32.5t-32.5 -13.5h-366v-144h424q19 0 32 -13t13 -32v-47q0 -19 -13.5 -32.5t-32.5 -13.5h-561 q-19 0 -32.5 13.5t-13.5 33.5z" />
<glyph unicode="&#x416;" horiz-adv-x="1100" d="M9 46l122 194q26 40 60 73.5t66 40.5q-46 11 -74.5 38.5t-51.5 69.5l-106 192q-11 20 -7.5 33.5t22.5 13.5h113q44 0 70 -47l76 -135q29 -52 61.5 -75.5t75.5 -23.5h22v234q0 19 13.5 33t32.5 14h92q19 0 32.5 -14t13.5 -33v-234h22q43 0 75.5 23.5t61.5 75.5l76 135 q26 47 70 47h113q19 0 22.5 -13.5t-7.5 -33.5l-106 -192q-23 -42 -51.5 -69.5t-74.5 -38.5q32 -7 66 -40.5t60 -73.5l122 -194q12 -20 7 -33t-24 -13h-112q-19 0 -41 13.5t-34 32.5l-86 136q-31 50 -62 75t-75 25h-22v-237q0 -19 -13.5 -32t-32.5 -13h-92q-19 0 -32.5 13 t-13.5 32v237h-22q-44 0 -75 -25t-62 -75l-86 -136q-12 -19 -34 -32.5t-41 -13.5h-112q-19 0 -24 13t7 33z" />
<glyph unicode="&#x417;" horiz-adv-x="781" d="M25 191q0 29 17 41.5t33 12.5h58q45 0 70 -54q12 -26 41 -41.5t64 -15.5h153q53 0 79.5 17t26.5 58t-26.5 58t-79.5 17h-126q-19 0 -32.5 13.5t-13.5 32.5v40q0 18 13 32t31 14h110q59 0 86.5 17.5t27.5 57.5t-27.5 57.5t-86.5 17.5h-119q-79 0 -109 -60q-22 -46 -66 -46 h-58q-9 0 -19 3.5t-20.5 17t-10.5 33.5q0 83 84 136.5t182 53.5h150q284 0 284 -214q0 -89 -67 -140q77 -48 77 -141q0 -113 -70.5 -163t-202.5 -50h-187q-99 0 -182.5 54.5t-83.5 140.5z" />
<glyph unicode="&#x418;" horiz-adv-x="852" d="M70 46v608q0 20 13 33t33 13h86q19 0 32.5 -13t13.5 -32v-489l278 488q11 19 30.5 32.5t36.5 13.5h144q19 0 32 -13.5t13 -32.5v-608q0 -19 -13.5 -32.5t-32.5 -13.5h-86q-19 0 -32.5 13.5t-13.5 32.5v453l-255 -453q-11 -19 -31.5 -32.5t-39.5 -13.5h-162 q-19 0 -32.5 13.5t-13.5 32.5z" />
<glyph unicode="&#x419;" horiz-adv-x="852" d="M70 46v608q0 20 13 33t33 13h86q19 0 32.5 -13t13.5 -32v-489l278 488q11 19 30.5 32.5t36.5 13.5h144q19 0 32 -13.5t13 -32.5v-608q0 -19 -13.5 -32.5t-32.5 -13.5h-86q-19 0 -32.5 13.5t-13.5 32.5v453l-255 -453q-11 -19 -31.5 -32.5t-39.5 -13.5h-162 q-19 0 -32.5 13.5t-13.5 32.5zM262 900q0 25 27 25h40q24 0 34 -25q14 -35 63 -35t63 35q10 25 34 25h40q27 0 27 -25q0 -67 -45 -106t-119 -39t-119 39t-45 106z" />
<glyph unicode="&#x41a;" horiz-adv-x="795" d="M70 47v607q0 19 13.5 33t32.5 14h92q19 0 32.5 -14t13.5 -33v-234h105q43 0 75.5 23.5t61.5 75.5l76 135q26 47 70 47h113q19 0 22.5 -13.5t-7.5 -33.5l-106 -192q-23 -42 -51.5 -69.5t-74.5 -38.5q32 -7 66 -40.5t60 -73.5l122 -194q12 -20 7 -33t-24 -13h-112 q-19 0 -41 13.5t-34 32.5l-86 136q-31 50 -62 75t-75 25h-105v-237q0 -19 -13.5 -32t-32.5 -13h-92q-19 0 -32.5 14t-13.5 33z" />
<glyph unicode="&#x41b;" horiz-adv-x="815" d="M12 41l124 469q50 190 324 190h244q17 0 29 -14t12 -32v-608q0 -19 -13 -32.5t-32 -13.5h-93q-19 0 -32.5 13.5t-13.5 32.5v516h-119q-47 0 -82 -26.5t-47 -71.5l-112 -418q-5 -20 -22 -33t-36 -13h-99q-17 0 -26.5 12.5t-5.5 28.5z" />
<glyph unicode="&#x41c;" horiz-adv-x="1034" d="M70 47v606q0 20 13 33.5t32 13.5h199q19 0 36 -13.5t23 -32.5l144 -417l144 417q6 19 23 32.5t36 13.5h199q19 0 32 -13.5t13 -33.5v-606q0 -20 -13.5 -33.5t-32.5 -13.5h-88q-19 0 -32.5 13.5t-13.5 33.5v477l-172 -480q-7 -18 -24 -31t-36 -13h-70q-19 0 -36 13t-24 31 l-172 480v-477q0 -20 -13.5 -33.5t-32.5 -13.5h-88q-19 0 -32.5 13.5t-13.5 33.5z" />
<glyph unicode="&#x41d;" horiz-adv-x="844" d="M70 46v608q0 19 13.5 32.5t33.5 13.5h91q19 0 32.5 -13.5t13.5 -32.5v-220h336v220q0 19 13.5 32.5t32.5 13.5h91q20 0 33.5 -13.5t13.5 -32.5v-608q0 -19 -14 -32.5t-33 -13.5h-91q-19 0 -32.5 13t-13.5 32v251h-336v-251q0 -19 -13.5 -32t-32.5 -13h-91q-19 0 -33 13.5 t-14 32.5z" />
<glyph unicode="&#x41e;" horiz-adv-x="846" d="M30 350q0 190 100 277.5t293 87.5t293 -87.5t100 -277.5t-100 -277.5t-293 -87.5t-293 87.5t-100 277.5zM214 350q0 -116 49.5 -174.5t159.5 -58.5t159.5 58.5t49.5 174.5t-49.5 174.5t-159.5 58.5t-159.5 -58.5t-49.5 -174.5z" />
<glyph unicode="&#x41f;" horiz-adv-x="865" d="M70 46v608q0 19 13 32.5t32 13.5h634q19 0 32.5 -13.5t13.5 -32.5v-608q0 -19 -14 -32.5t-33 -13.5h-91q-19 0 -32.5 13.5t-13.5 32.5v516h-357v-516q0 -19 -13.5 -32.5t-32.5 -13.5h-92q-19 0 -32.5 13.5t-13.5 32.5z" />
<glyph unicode="&#x420;" horiz-adv-x="803" d="M70 46v608q0 19 13 32.5t32 13.5h373q295 0 295 -272t-295 -272h-234v-110q0 -19 -13.5 -32.5t-32.5 -13.5h-92q-19 0 -32.5 13.5t-13.5 32.5zM254 294h178q82 0 124.5 27.5t42.5 106.5t-42.5 106.5t-124.5 27.5h-178v-268z" />
<glyph unicode="&#x421;" horiz-adv-x="817" d="M30 350q0 181 90.5 267.5t271.5 86.5h109q111 0 196 -57.5t85 -157.5q0 -29 -17 -41.5t-33 -12.5h-58q-45 0 -70 54q-36 77 -120 77h-87q-107 0 -145 -46t-38 -170t38 -170t145 -46h97q84 0 120 77q25 54 70 54h58q9 0 19 -3.5t20.5 -17t10.5 -33.5q0 -100 -85 -157.5 t-196 -57.5h-119q-181 0 -271.5 86.5t-90.5 267.5z" />
<glyph unicode="&#x422;" horiz-adv-x="732" d="M10 608v46q0 20 13 33t33 13h620q20 0 33 -13t13 -33v-46q0 -20 -13 -33t-33 -13h-218v-517q0 -19 -13.5 -32t-32.5 -13h-92q-19 0 -32.5 13t-13.5 32v517h-218q-20 0 -33 13t-13 33z" />
<glyph unicode="&#x423;" horiz-adv-x="779" d="M14 654q-8 19 0 32.5t27 13.5h103q47 0 65 -44l56 -136q25 -59 62.5 -88t99.5 -29h60l88 252q7 21 24 33t37 12h99q19 0 28 -13t3 -31l-159 -456q-33 -96 -100 -148t-187 -52h-118q-19 0 -32.5 13.5t-13.5 32.5v55q0 19 13 32.5t33 13.5h16q13 0 40 -4.5t42 -4.5h10 q97 0 133 127h-42q-123 0 -192 50t-118 163z" />
<glyph unicode="&#x424;" horiz-adv-x="952" d="M20 350q0 150 98.5 218.5t265.5 68.5v48q0 19 13.5 32.5t33.5 13.5h90q20 0 33.5 -13.5t13.5 -32.5v-48q167 0 265.5 -68.5t98.5 -218.5t-98.5 -218.5t-265.5 -68.5v-48q0 -19 -14 -32.5t-33 -13.5h-90q-19 0 -33 13.5t-14 32.5v48q-167 0 -265.5 68.5t-98.5 218.5z M204 350q0 -78 49.5 -116.5t135.5 -38.5v310q-86 0 -135.5 -38.5t-49.5 -116.5zM563 195q86 0 135.5 38.5t49.5 116.5t-49.5 116.5t-135.5 38.5v-310z" />
<glyph unicode="&#x425;" horiz-adv-x="750" d="M20 46l246 314l-232 294q-14 18 -8.5 32t25.5 14h105q49 0 85 -46l134 -170l134 170q36 46 85 46h105q20 0 25.5 -14t-8.5 -32l-232 -294l246 -314q14 -18 8.5 -32t-25.5 -14h-104q-49 0 -85 46l-149 190l-149 -190q-36 -46 -85 -46h-104q-20 0 -25.5 14t8.5 32z" />
<glyph unicode="&#x426;" horiz-adv-x="865" d="M70 46v609q0 19 13.5 32t32.5 13h92q19 0 32.5 -13.5t13.5 -32.5v-516h328v517q0 19 13.5 32t32.5 13h92q19 0 32.5 -13.5t13.5 -32.5v-516h53q19 0 32.5 -13.5t13.5 -32.5v-46q0 -19 -13.5 -32.5t-32.5 -13.5h-703q-19 0 -32.5 13.5t-13.5 32.5z" />
<glyph unicode="&#x427;" horiz-adv-x="785" d="M40 490v164q0 19 14 32.5t33 13.5h91q19 0 32.5 -13.5t13.5 -32.5v-164q0 -118 118 -118h189v282q0 19 13.5 32.5t32.5 13.5h91q20 0 33.5 -13.5t13.5 -32.5v-608q0 -19 -14 -32.5t-33 -13.5h-91q-19 0 -32.5 13t-13.5 32v189h-189q-139 0 -220.5 63.5t-81.5 192.5z" />
<glyph unicode="&#x428;" horiz-adv-x="1120" d="M70 46v608q0 19 13.5 32.5t32.5 13.5h92q19 0 32.5 -13t13.5 -32v-517h214v517q0 19 13.5 32t32.5 13h92q19 0 32.5 -13.5t13.5 -32.5v-516h214v517q0 19 13.5 32t32.5 13h92q19 0 32.5 -13.5t13.5 -32.5v-608q0 -19 -13.5 -32.5t-32.5 -13.5h-888q-19 0 -32.5 13.5 t-13.5 32.5z" />
<glyph unicode="&#x429;" horiz-adv-x="1149" d="M70 46v608q0 19 13.5 32.5t32.5 13.5h92q19 0 32.5 -13t13.5 -32v-517h214v517q0 19 13.5 32t32.5 13h92q19 0 32.5 -13.5t13.5 -32.5v-516h214v517q0 19 13.5 32t32.5 13h92q19 0 32.5 -13.5t13.5 -32.5v-516h53q19 0 32.5 -13.5t13.5 -32.5v-46q0 -19 -13.5 -32.5 t-32.5 -13.5h-987q-19 0 -32.5 13.5t-13.5 32.5z" />
<glyph unicode="&#x42a;" horiz-adv-x="875" d="M0 608v46q0 19 13.5 32.5t32.5 13.5h266q19 0 32.5 -13.5t13.5 -32.5v-192h231q115 0 190.5 -61t75.5 -170t-75.5 -170t-190.5 -61h-371q-18 0 -31 14t-13 33v515h-128q-19 0 -32.5 13.5t-13.5 32.5zM358 138h231q82 0 82 93t-82 93h-231v-186z" />
<glyph unicode="&#x42b;" horiz-adv-x="1075" d="M70 47v607q0 20 13 33t33 13h92q19 0 32.5 -13.5t13.5 -32.5v-192h201q115 0 190.5 -61t75.5 -170t-75.5 -170t-190.5 -61h-341q-18 0 -31 14t-13 33zM254 138h201q82 0 82 93t-82 93h-201v-186zM819 45v609q0 19 13.5 32.5t32.5 13.5h93q20 0 33.5 -13.5t13.5 -32.5 v-608q0 -19 -14 -32.5t-33 -13.5h-93q-19 0 -32.5 13t-13.5 32z" />
<glyph unicode="&#x42c;" horiz-adv-x="781" d="M70 47v607q0 20 13 33t33 13h92q19 0 32.5 -13.5t13.5 -32.5v-192h241q115 0 190.5 -61t75.5 -170t-75.5 -170t-190.5 -61h-381q-18 0 -31 14t-13 33zM254 138h241q82 0 82 93t-82 93h-241v-186z" />
<glyph unicode="&#x42d;" horiz-adv-x="817" d="M25 201q0 29 17 41.5t33 12.5h58q44 0 70 -54q33 -67 120 -67h97q93 0 134.5 33.5t45.5 116.5h-262q-19 0 -32.5 13.5t-13.5 32.5v41q0 19 13.5 32.5t32.5 13.5h262q-5 82 -46 115.5t-134 33.5h-87q-87 0 -120 -67q-26 -54 -70 -54h-58q-9 0 -19 3.5t-20.5 17t-10.5 33.5 q0 63 42.5 111t105.5 71t133 23h109q181 0 271.5 -86.5t90.5 -267.5t-90.5 -267.5t-271.5 -86.5h-119q-70 0 -133 23t-105.5 71t-42.5 111z" />
<glyph unicode="&#x42e;" horiz-adv-x="1114" d="M70 46v608q0 19 13.5 32.5t33.5 13.5h93q19 0 32.5 -13.5t13.5 -32.5v-219h91q41 280 366 280q371 0 371 -365t-371 -365q-342 0 -369 311h-88v-251q0 -19 -13.5 -32t-32.5 -13h-93q-19 0 -33 13.5t-14 32.5zM526 350q0 -233 187 -233t187 233t-187 233t-187 -233z" />
<glyph unicode="&#x42f;" horiz-adv-x="795" d="M34 472q0 109 75.5 168.5t189.5 59.5h382q18 0 31 -13t13 -32v-610q0 -19 -13.5 -32t-32.5 -13h-92q-19 0 -32.5 13.5t-13.5 32.5v202h-175l-117 -203q-25 -45 -71 -45h-123q-16 0 -22 14.5t4 31.5l135 222q-138 60 -138 204zM218 476q0 -86 81 -86h242v172h-242 q-81 0 -81 -86z" />
<glyph unicode="&#x430;" horiz-adv-x="652" d="M30 162q0 82 64.5 126t166.5 44h162q0 57 -24 79.5t-76 22.5q-68 0 -95 -33q-21 -26 -56 -26h-73q-13 0 -21.5 8.5t-8.5 21.5q0 140 266 140q116 0 186.5 -52t70.5 -161v-302q0 -13 -8.5 -21.5t-21.5 -8.5h-94q-13 0 -21.5 8.5t-8.5 21.5v15q-77 -55 -177 -55 q-102 0 -166.5 45t-64.5 127zM199 162q0 -27 20.5 -44t58.5 -17q75 0 145 44v76h-150q-34 0 -54 -16.5t-20 -42.5z" />
<glyph unicode="&#x431;" horiz-adv-x="643" d="M30 260v70q0 168 59 255.5t201 100.5l269 24q13 2 22.5 -5.5t9.5 -19.5v-64q0 -16 -10.5 -30t-25.5 -15l-205 -17q-102 -8 -143.5 -47.5t-41.5 -126.5q60 84 189 84q118 0 191 -62.5t73 -176.5q0 -116 -75 -178t-219 -62q-294 0 -294 270zM199 230q0 -62 32.5 -95.5 t92.5 -33.5t92.5 33.5t32.5 95.5q0 61 -32.5 94.5t-92.5 33.5t-92.5 -33.5t-32.5 -94.5z" />
<glyph unicode="&#x432;" horiz-adv-x="641" d="M60 30v475q0 13 8.5 21.5t21.5 8.5h292q93 0 151 -36t58 -109q0 -72 -60 -109q85 -43 85 -131q0 -81 -55 -115.5t-158 -34.5h-313q-13 0 -21.5 8.5t-8.5 21.5zM229 109h162q27 0 41.5 15t14.5 40t-14.5 40t-41.5 15h-162v-110zM229 326h143q22 0 36 14t14 36t-14 36 t-36 14h-143v-100z" />
<glyph unicode="&#x433;" horiz-adv-x="495" d="M60 30v475q0 13 8.5 21.5t21.5 8.5h365q13 0 21.5 -8.5t8.5 -21.5v-58q0 -13 -8.5 -21.5t-21.5 -8.5h-226v-387q0 -13 -8.5 -21.5t-21.5 -8.5h-109q-13 0 -21.5 8.5t-8.5 21.5z" />
<glyph unicode="&#x434;" horiz-adv-x="702" d="M10 30v58q0 13 8.5 21.5t21.5 8.5h38l67 269q37 148 245 148h222q13 0 21.5 -8.5t8.5 -21.5v-475q0 -13 -8.5 -21.5t-21.5 -8.5h-572q-13 0 -21.5 8.5t-8.5 21.5zM238 118h235v299h-88q-71 0 -90 -72z" />
<glyph unicode="&#x435;" horiz-adv-x="630" d="M30 267q0 134 75.5 206t209.5 72q135 0 210 -70t75 -201v-28q0 -13 -8.5 -21.5t-21.5 -8.5h-368q5 -60 34.5 -87.5t90.5 -27.5q69 0 96 33q21 26 56 26h73q13 0 21.5 -8.5t8.5 -21.5q0 -140 -267 -140q-135 0 -210 71.5t-75 205.5zM201 319h227q-5 115 -113 115 t-114 -115z" />
<glyph unicode="&#x436;" horiz-adv-x="871" d="M19 46l73 134q39 73 104 88q-37 9 -64 33t-40 55l-53 133q-19 46 17 46h92q24 0 43 -12.5t27 -33.5l37 -100q25 -66 96 -66v182q0 13 8.5 21.5t21.5 8.5h109q13 0 21.5 -8.5t8.5 -21.5v-182q71 0 96 66l37 100q8 21 27 33.5t43 12.5h92q36 0 17 -46l-53 -133 q-13 -31 -40 -55t-64 -33q65 -15 104 -88l73 -134q11 -20 6.5 -33t-23.5 -13h-92q-51 0 -75 46l-52 101q-33 65 -96 65v-182q0 -13 -8.5 -21.5t-21.5 -8.5h-109q-13 0 -21.5 8.5t-8.5 21.5v182q-63 0 -96 -65l-52 -101q-24 -46 -75 -46h-92q-19 0 -23.5 13t6.5 33z" />
<glyph unicode="&#x437;" horiz-adv-x="611" d="M20 137q0 13 8.5 21.5t21.5 8.5h73q33 0 52 -33t72 -33h99q71 0 71 59q0 57 -71 57h-121q-13 0 -21.5 8.5t-8.5 21.5v51q0 13 8.5 21.5t21.5 8.5h112q32 0 48.5 14.5t16.5 38.5t-16.5 38.5t-48.5 14.5h-90q-17 0 -35 -8.5t-27 -24.5q-19 -33 -52 -33h-73q-13 0 -21.5 8.5 t-8.5 21.5q0 66 64 106.5t155 40.5h98q103 0 163.5 -38t60.5 -112q0 -80 -70 -114q85 -43 85 -136q0 -81 -57.5 -118t-170.5 -37h-109q-98 0 -163.5 40t-65.5 107z" />
<glyph unicode="&#x438;" horiz-adv-x="676" d="M60 30v475q0 13 8.5 21.5t21.5 8.5h102q13 0 21.5 -8.5t8.5 -21.5v-321l172 316q8 15 24 25t31 10h137q13 0 21.5 -8.5t8.5 -21.5v-475q0 -13 -8.5 -21.5t-21.5 -8.5h-102q-13 0 -21.5 8.5t-8.5 21.5v320l-172 -315q-8 -14 -24 -24.5t-31 -10.5h-137q-13 0 -21.5 8.5 t-8.5 21.5z" />
<glyph unicode="&#x439;" horiz-adv-x="676" d="M60 30v475q0 13 8.5 21.5t21.5 8.5h102q13 0 21.5 -8.5t8.5 -21.5v-321l172 316q8 15 24 25t31 10h137q13 0 21.5 -8.5t8.5 -21.5v-475q0 -13 -8.5 -21.5t-21.5 -8.5h-102q-13 0 -21.5 8.5t-8.5 21.5v320l-172 -315q-8 -14 -24 -24.5t-31 -10.5h-137q-13 0 -21.5 8.5 t-8.5 21.5zM174 720q0 25 27 25h37q24 0 34 -25q16 -40 66 -40t66 40q10 25 34 25h37q27 0 27 -25q0 -57 -45.5 -93.5t-118.5 -36.5t-118.5 36.5t-45.5 93.5z" />
<glyph unicode="&#x43a;" horiz-adv-x="610" d="M60 30v475q0 13 8.5 21.5t21.5 8.5h109q13 0 21.5 -8.5t8.5 -21.5v-182q85 0 116 66l47 100q10 21 29 33.5t41 12.5h92q38 0 17 -46l-63 -133q-16 -33 -44 -57t-60 -31q60 -18 104 -88l83 -134q12 -20 7 -33t-24 -13h-92q-47 0 -75 46l-62 101q-40 65 -116 65v-182 q0 -13 -8.5 -21.5t-21.5 -8.5h-109q-13 0 -21.5 8.5t-8.5 21.5z" />
<glyph unicode="&#x43b;" horiz-adv-x="665" d="M11 32l88 355q37 148 245 148h231q13 0 21.5 -8.5t8.5 -21.5v-475q0 -13 -8.5 -21.5t-21.5 -8.5h-109q-13 0 -21.5 8.5t-8.5 21.5v387h-92q-68 0 -86 -72l-77 -309q-4 -16 -17 -26t-28 -10h-100q-13 0 -20.5 9.5t-4.5 22.5z" />
<glyph unicode="&#x43c;" horiz-adv-x="842" d="M60 30v475q0 13 8.5 21.5t21.5 8.5h168q29 0 44 -36l119 -291l119 291q15 36 44 36h168q13 0 21.5 -8.5t8.5 -21.5v-475q0 -13 -8.5 -21.5t-21.5 -8.5h-106q-13 0 -21.5 8.5t-8.5 21.5v305l-125 -301q-15 -34 -46 -34h-48q-31 0 -46 34l-125 301v-305q0 -13 -8.5 -21.5 t-21.5 -8.5h-106q-13 0 -21.5 8.5t-8.5 21.5z" />
<glyph unicode="&#x43d;" horiz-adv-x="672" d="M60 30v475q0 13 8.5 21.5t21.5 8.5h109q13 0 21.5 -8.5t8.5 -21.5v-175h214v175q0 13 8.5 21.5t21.5 8.5h109q13 0 21.5 -8.5t8.5 -21.5v-475q0 -13 -8.5 -21.5t-21.5 -8.5h-109q-13 0 -21.5 8.5t-8.5 21.5v182h-214v-182q0 -13 -8.5 -21.5t-21.5 -8.5h-109 q-13 0 -21.5 8.5t-8.5 21.5z" />
<glyph unicode="&#x43e;" horiz-adv-x="650" d="M30 268q0 137 76 207t219 70t219 -70t76 -207t-76 -207.5t-219 -70.5t-219 70.5t-76 207.5zM199 268q0 -87 30.5 -127t95.5 -40t95.5 40t30.5 127t-30.5 126.5t-95.5 39.5t-95.5 -39.5t-30.5 -126.5z" />
<glyph unicode="&#x43f;" horiz-adv-x="672" d="M60 30v475q0 13 8.5 21.5t21.5 8.5h492q13 0 21.5 -8.5t8.5 -21.5v-475q0 -13 -8.5 -21.5t-21.5 -8.5h-109q-13 0 -21.5 8.5t-8.5 21.5v387h-214v-387q0 -13 -8.5 -21.5t-21.5 -8.5h-109q-13 0 -21.5 8.5t-8.5 21.5z" />
<glyph unicode="&#x440;" horiz-adv-x="662" d="M60 -135v640q0 13 8.5 21.5t21.5 8.5h94q13 0 21.5 -8.5t8.5 -21.5v-15q77 55 171 55q110 0 178.5 -72t68.5 -205q0 -135 -71 -206.5t-191 -71.5q-62 0 -141 25v-150q0 -13 -8.5 -21.5t-21.5 -8.5h-109q-13 0 -21.5 8.5t-8.5 21.5zM229 128q63 -20 106 -20q67 0 95 38 t28 122q0 83 -26.5 121t-86.5 38q-46 0 -116 -44v-255z" />
<glyph unicode="&#x441;" horiz-adv-x="621" d="M30 267q0 137 75.5 207.5t214.5 70.5q131 0 203.5 -43t72.5 -127q0 -13 -8.5 -21.5t-21.5 -8.5h-73q-33 0 -56 36q-29 46 -105 46q-70 0 -99 -37.5t-29 -122.5q0 -84 30 -121.5t103 -37.5q76 0 105 46q23 36 56 36h73q13 0 21.5 -8.5t8.5 -21.5q0 -84 -72.5 -127 t-203.5 -43q-143 0 -219 70.5t-76 206.5z" />
<glyph unicode="&#x442;" horiz-adv-x="561" d="M10 447v58q0 13 8.5 21.5t21.5 8.5h481q13 0 21.5 -8.5t8.5 -21.5v-58q0 -13 -8.5 -21.5t-21.5 -8.5h-156v-387q0 -13 -8.5 -21.5t-21.5 -8.5h-109q-13 0 -21.5 8.5t-8.5 21.5v387h-156q-13 0 -21.5 8.5t-8.5 21.5z" />
<glyph unicode="&#x443;" horiz-adv-x="632" d="M17 506q-4 11 3.5 20t19.5 9h102q14 0 27 -9.5t17 -23.5l64 -207q24 -76 48.5 -105.5t58.5 -29.5l97 342q4 14 15.5 23.5t25.5 9.5h103q12 0 19 -9t4 -20l-128 -456q-34 -121 -84.5 -173t-135.5 -52q-74 0 -127 10q-13 2 -21.5 10.5t-8.5 19.5v54q0 13 8.5 21.5t21.5 8.5 h18q11 0 31.5 -4t32.5 -4q69 0 96 101q-83 0 -138.5 50t-95.5 178z" />
<glyph unicode="&#x444;" horiz-adv-x="801" d="M20 268q0 129 76 196t220 71v135q0 13 8.5 21.5t21.5 8.5h109q13 0 21.5 -8.5t8.5 -21.5v-135q144 -4 220 -71t76 -196t-76 -196.5t-220 -71.5v-135q0 -13 -8.5 -21.5t-21.5 -8.5h-109q-13 0 -21.5 8.5t-8.5 21.5v135q-144 4 -220 71.5t-76 196.5zM189 268 q0 -83 32 -121.5t98 -39.5v321q-66 -1 -98 -39t-32 -121zM482 107q66 1 98 39.5t32 121.5t-32 121t-98 39v-321z" />
<glyph unicode="&#x445;" horiz-adv-x="624" d="M23 43l170 225l-159 224q-7 10 -7.5 19.5t5.5 16.5t17 7h106q47 0 76 -43l81 -123l81 123q29 43 76 43h106q11 0 17 -7t5.5 -16.5t-7.5 -19.5l-159 -224l170 -225q11 -13 6.5 -28t-21.5 -15h-104q-45 0 -76 43l-94 127l-94 -127q-31 -43 -76 -43h-104q-17 0 -21.5 15 t6.5 28z" />
<glyph unicode="&#x446;" horiz-adv-x="694" d="M60 30v475q0 13 8.5 21.5t21.5 8.5h109q13 0 21.5 -8.5t8.5 -21.5v-387h208v387q0 13 8.5 21.5t21.5 8.5h109q13 0 21.5 -8.5t8.5 -21.5v-387h48q13 0 21.5 -8.5t8.5 -21.5v-58q0 -13 -8.5 -21.5t-21.5 -8.5h-564q-13 0 -21.5 8.5t-8.5 21.5z" />
<glyph unicode="&#x447;" horiz-adv-x="620" d="M30 361v144q0 13 8.5 21.5t21.5 8.5h109q13 0 21.5 -8.5t8.5 -21.5v-144q0 -37 19 -54t49 -17h124v215q0 13 8.5 21.5t21.5 8.5h109q13 0 21.5 -8.5t8.5 -21.5v-475q0 -13 -8.5 -21.5t-21.5 -8.5h-109q-13 0 -21.5 8.5t-8.5 21.5v142h-124q-122 0 -179.5 42.5 t-57.5 146.5z" />
<glyph unicode="&#x448;" horiz-adv-x="933" d="M60 30v475q0 13 8.5 21.5t21.5 8.5h109q13 0 21.5 -8.5t8.5 -21.5v-387h153v387q0 13 8.5 21.5t21.5 8.5h109q13 0 21.5 -8.5t8.5 -21.5v-387h153v387q0 13 8.5 21.5t21.5 8.5h109q13 0 21.5 -8.5t8.5 -21.5v-475q0 -13 -8.5 -21.5t-21.5 -8.5h-753q-13 0 -21.5 8.5 t-8.5 21.5z" />
<glyph unicode="&#x449;" horiz-adv-x="961" d="M60 30v475q0 13 8.5 21.5t21.5 8.5h109q13 0 21.5 -8.5t8.5 -21.5v-387h153v387q0 13 8.5 21.5t21.5 8.5h109q13 0 21.5 -8.5t8.5 -21.5v-387h153v387q0 13 8.5 21.5t21.5 8.5h109q13 0 21.5 -8.5t8.5 -21.5v-387h48q13 0 21.5 -8.5t8.5 -21.5v-58q0 -13 -8.5 -21.5 t-21.5 -8.5h-831q-13 0 -21.5 8.5t-8.5 21.5z" />
<glyph unicode="&#x44a;" horiz-adv-x="702" d="M10 447v58q0 13 8.5 21.5t21.5 8.5h251q13 0 21.5 -8.5t8.5 -21.5v-147h138q104 0 161 -41t57 -138t-57 -138t-161 -41h-277q-13 0 -21.5 8.5t-8.5 21.5v387h-112q-13 0 -21.5 8.5t-8.5 21.5zM321 111h123q30 0 47 17.5t17 50.5t-17 50.5t-47 17.5h-123v-136z" />
<glyph unicode="&#x44b;" horiz-adv-x="861" d="M60 30v475q0 13 8.5 21.5t21.5 8.5h109q13 0 21.5 -8.5t8.5 -21.5v-147h116q104 0 161 -41t57 -138t-57 -138t-161 -41h-255q-13 0 -21.5 8.5t-8.5 21.5zM226 109h104q64 0 64 70t-64 70h-104v-140zM632 30v475q0 13 8.5 21.5t21.5 8.5h109q13 0 21.5 -8.5t8.5 -21.5 v-475q0 -13 -8.5 -21.5t-21.5 -8.5h-109q-13 0 -21.5 8.5t-8.5 21.5z" />
<glyph unicode="&#x44c;" horiz-adv-x="620" d="M60 30v475q0 13 8.5 21.5t21.5 8.5h109q13 0 21.5 -8.5t8.5 -21.5v-147h148q104 0 161 -41t57 -138t-57 -138t-161 -41h-287q-13 0 -21.5 8.5t-8.5 21.5zM229 111h133q30 0 47 17.5t17 50.5t-17 50.5t-47 17.5h-133v-136z" />
<glyph unicode="&#x44d;" horiz-adv-x="621" d="M20 149q0 13 8.5 21.5t21.5 8.5h73q31 0 56 -32q32 -39 105 -39q61 0 92 25t37 78h-173q-13 0 -21.5 8.5t-8.5 21.5v51q0 13 8.5 21.5t21.5 8.5h173q-10 105 -124 105q-73 0 -105 -39q-25 -32 -56 -32h-73q-13 0 -21.5 8.5t-8.5 21.5q0 77 73 118t203 41 q141 0 215.5 -70.5t74.5 -207.5t-75 -207t-220 -70q-130 0 -203 41t-73 118z" />
<glyph unicode="&#x44e;" horiz-adv-x="891" d="M60 30v475q0 13 8.5 21.5t21.5 8.5h109q13 0 21.5 -8.5t8.5 -21.5v-175h72q13 105 87 160t191 55q132 0 207 -71t75 -206q0 -136 -75 -207t-207 -71q-119 0 -193 57t-86 165h-71v-182q0 -13 -8.5 -21.5t-21.5 -8.5h-109q-13 0 -21.5 8.5t-8.5 21.5zM466 268 q0 -167 113 -167t113 167q0 166 -113 166t-113 -166z" />
<glyph unicode="&#x44f;" horiz-adv-x="632" d="M36 363q0 172 218 172h288q13 0 21.5 -8.5t8.5 -21.5v-475q0 -13 -8.5 -21.5t-21.5 -8.5h-109q-13 0 -21.5 8.5t-8.5 21.5v161h-96l-83 -148q-24 -43 -76 -43h-88q-18 0 -23.5 13t5.5 30l98 164q-104 39 -104 156zM205 363q0 -28 17 -44.5t47 -16.5h134v122h-134 q-30 0 -47 -16.5t-17 -44.5z" />
<glyph unicode="&#x451;" horiz-adv-x="630" d="M30 267q0 134 75.5 206t209.5 72q135 0 210 -70t75 -201v-28q0 -13 -8.5 -21.5t-21.5 -8.5h-368q5 -60 34.5 -87.5t90.5 -27.5q69 0 96 33q21 26 56 26h73q13 0 21.5 -8.5t8.5 -21.5q0 -140 -267 -140q-135 0 -210 71.5t-75 205.5zM113 635v19q0 26 15 41t41 15h47 q26 0 41 -15t15 -41v-19q0 -26 -15 -41t-41 -15h-47q-26 0 -41 15t-15 41zM201 319h227q-5 115 -113 115t-114 -115zM358 635v19q0 26 15 41t41 15h47q26 0 41 -15t15 -41v-19q0 -26 -15 -41t-41 -15h-47q-26 0 -41 15t-15 41z" />
<glyph unicode="&#x452;" horiz-adv-x="729" d="M10 545v53q0 13 8.5 21.5t21.5 8.5h67v42q0 13 8.5 21.5t21.5 8.5h109q13 0 21.5 -8.5t8.5 -21.5v-42h77q13 0 21.5 -8.5t8.5 -21.5v-53q0 -13 -8.5 -21.5t-21.5 -8.5h-77v-111q84 71 171 71q103 0 162.5 -58t59.5 -177v-185q0 -230 -189 -230q-67 0 -110 10 q-30 7 -30 30v53q0 13 8.5 21.5t21.5 8.5h15q9 0 24.5 -3.5t25.5 -3.5q27 0 46 27t19 87v185q0 117 -93 117q-61 0 -131 -70v-257q0 -13 -8.5 -21.5t-21.5 -8.5h-109q-13 0 -21.5 8.5t-8.5 21.5v485h-67q-13 0 -21.5 8.5t-8.5 21.5z" />
<glyph unicode="&#x453;" horiz-adv-x="495" d="M60 30v475q0 13 8.5 21.5t21.5 8.5h365q13 0 21.5 -8.5t8.5 -21.5v-58q0 -13 -8.5 -21.5t-21.5 -8.5h-226v-387q0 -13 -8.5 -21.5t-21.5 -8.5h-109q-13 0 -21.5 8.5t-8.5 21.5zM208 638l34 112q7 23 28.5 39.5t45.5 16.5h34q40 0 57.5 -22t-1.5 -54l-63 -102 q-35 -56 -77 -56h-13q-65 0 -45 66z" />
<glyph unicode="&#x454;" horiz-adv-x="621" d="M30 267q0 137 74.5 207.5t215.5 70.5q130 0 203 -41t73 -118q0 -13 -8.5 -21.5t-21.5 -8.5h-73q-31 0 -56 32q-32 39 -105 39q-114 0 -124 -105h173q13 0 21.5 -8.5t8.5 -21.5v-51q0 -13 -8.5 -21.5t-21.5 -8.5h-173q6 -53 37 -78t92 -25q73 0 105 39q25 32 56 32h73 q13 0 21.5 -8.5t8.5 -21.5q0 -77 -73 -118t-203 -41q-145 0 -220 70t-75 207z" />
<glyph unicode="&#x455;" horiz-adv-x="598" d="M30 387q0 80 70 119t184 39q268 0 268 -140q0 -13 -8.5 -21.5t-21.5 -8.5h-73q-35 0 -56 26q-27 33 -97 33q-97 0 -97 -47q0 -22 38 -36.5t92.5 -25.5t108.5 -28t92 -54.5t38 -94.5q0 -81 -72.5 -119.5t-196.5 -38.5q-268 0 -268 140q0 13 8.5 21.5t21.5 8.5h73 q35 0 56 -26q27 -33 97 -33q112 0 112 47q0 22 -38 36.5t-92.5 26t-108.5 28.5t-92 54.5t-38 93.5z" />
<glyph unicode="&#x456;" horiz-adv-x="293" d="M60 637v17q0 26 15 41t41 15h61q26 0 41 -15t15 -41v-17q0 -26 -15 -41t-41 -15h-61q-26 0 -41 15t-15 41zM62 30v463q0 13 8.5 21.5t21.5 8.5h109q13 0 21.5 -8.5t8.5 -21.5v-463q0 -13 -8.5 -21.5t-21.5 -8.5h-109q-13 0 -21.5 8.5t-8.5 21.5z" />
<glyph unicode="&#x457;" horiz-adv-x="307" d="M-20 637v17q0 26 15 41t41 15h36q26 0 41 -15t15 -41v-17q0 -26 -15 -41t-41 -15h-36q-26 0 -41 15t-15 41zM69 30v463q0 13 8.5 21.5t21.5 8.5h109q13 0 21.5 -8.5t8.5 -21.5v-463q0 -13 -8.5 -21.5t-21.5 -8.5h-109q-13 0 -21.5 8.5t-8.5 21.5zM179 640v17q0 26 15 41 t41 15h36q26 0 41 -15t15 -41v-17q0 -26 -15 -41t-41 -15h-36q-26 0 -41 15t-15 41z" />
<glyph unicode="&#x458;" horiz-adv-x="301" d="M-90 -82q0 13 8.5 21.5t21.5 8.5h15q9 0 24.5 -3.5t25.5 -3.5q27 0 46 27t19 87v438q0 13 8.5 21.5t21.5 8.5h109q13 0 21.5 -8.5t8.5 -21.5v-438q0 -230 -189 -230q-67 0 -110 10q-30 7 -30 30v53zM68 637v17q0 26 15 41t41 15h61q26 0 41 -15t15 -41v-17q0 -26 -15 -41 t-41 -15h-61q-26 0 -41 15t-15 41z" />
<glyph unicode="&#x459;" horiz-adv-x="961" d="M11 32l88 355q37 148 245 148h211q13 0 21.5 -8.5t8.5 -21.5v-147h138q104 0 161 -41t57 -138t-57 -138t-161 -41h-277q-13 0 -21.5 8.5t-8.5 21.5v387h-72q-68 0 -86 -72l-77 -309q-4 -16 -17 -26t-28 -10h-100q-13 0 -20.5 9.5t-4.5 22.5zM585 111h123q30 0 47 17.5 t17 50.5t-17 50.5t-47 17.5h-123v-136z" />
<glyph unicode="&#x45a;" horiz-adv-x="968" d="M60 30v475q0 13 8.5 21.5t21.5 8.5h109q13 0 21.5 -8.5t8.5 -21.5v-165h194v165q0 13 8.5 21.5t21.5 8.5h109q13 0 21.5 -8.5t8.5 -21.5v-165h138q218 0 218 -170t-218 -170h-277q-13 0 -21.5 8.5t-8.5 21.5v192h-194v-192q0 -13 -8.5 -21.5t-21.5 -8.5h-109 q-13 0 -21.5 8.5t-8.5 21.5zM592 111h123q30 0 47 15.5t17 43.5t-17 43.5t-47 15.5h-123v-118z" />
<glyph unicode="&#x45b;" horiz-adv-x="729" d="M10 545v53q0 13 8.5 21.5t21.5 8.5h67v42q0 13 8.5 21.5t21.5 8.5h109q13 0 21.5 -8.5t8.5 -21.5v-42h77q13 0 21.5 -8.5t8.5 -21.5v-53q0 -13 -8.5 -21.5t-21.5 -8.5h-77v-111q84 71 171 71q103 0 162.5 -58t59.5 -177v-210q0 -13 -8.5 -21.5t-21.5 -8.5h-109 q-13 0 -21.5 8.5t-8.5 21.5v210q0 117 -93 117q-61 0 -131 -70v-257q0 -13 -8.5 -21.5t-21.5 -8.5h-109q-13 0 -21.5 8.5t-8.5 21.5v485h-67q-13 0 -21.5 8.5t-8.5 21.5z" />
<glyph unicode="&#x45c;" horiz-adv-x="610" d="M60 30v475q0 13 8.5 21.5t21.5 8.5h109q13 0 21.5 -8.5t8.5 -21.5v-182q85 0 116 66l47 100q10 21 29 33.5t41 12.5h92q38 0 17 -46l-63 -133q-16 -33 -44 -57t-60 -31q60 -18 104 -88l83 -134q12 -20 7 -33t-24 -13h-92q-47 0 -75 46l-62 101q-40 65 -116 65v-182 q0 -13 -8.5 -21.5t-21.5 -8.5h-109q-13 0 -21.5 8.5t-8.5 21.5zM261 631l34 112q7 23 28.5 39.5t45.5 16.5h34q40 0 57.5 -22t-1.5 -54l-63 -102q-35 -56 -77 -56h-13q-65 0 -45 66z" />
<glyph unicode="&#x45e;" horiz-adv-x="632" d="M17 506q-4 11 3.5 20t19.5 9h102q14 0 27 -9.5t17 -23.5l64 -207q24 -76 48.5 -105.5t58.5 -29.5l97 342q4 14 15.5 23.5t25.5 9.5h103q12 0 19 -9t4 -20l-128 -456q-34 -121 -84.5 -173t-135.5 -52q-74 0 -127 10q-13 2 -21.5 10.5t-8.5 19.5v54q0 13 8.5 21.5t21.5 8.5 h18q11 0 31.5 -4t32.5 -4q69 0 96 101q-83 0 -138.5 50t-95.5 178zM161 710q0 25 27 25h37q24 0 34 -25q16 -40 66 -40t66 40q10 25 34 25h37q27 0 27 -25q0 -57 -45.5 -93.5t-118.5 -36.5t-118.5 36.5t-45.5 93.5z" />
<glyph unicode="&#x45f;" horiz-adv-x="672" d="M60 30v475q0 13 8.5 21.5t21.5 8.5h109q13 0 21.5 -8.5t8.5 -21.5v-387h214v387q0 13 8.5 21.5t21.5 8.5h109q13 0 21.5 -8.5t8.5 -21.5v-475q0 -13 -8.5 -21.5t-21.5 -8.5h-170v-127q0 -13 -8.5 -21.5t-21.5 -8.5h-92q-13 0 -21.5 8.5t-8.5 21.5v127h-170 q-13 0 -21.5 8.5t-8.5 21.5z" />
<glyph unicode="&#x490;" horiz-adv-x="644" d="M70 45v609q0 20 13 33t33 13h351v61q0 19 13.5 32t32.5 13h75q19 0 32.5 -13t13.5 -32v-153q0 -20 -13 -33t-33 -13h-334v-517q0 -19 -13.5 -32t-32.5 -13h-92q-19 0 -32.5 13t-13.5 32z" />
<glyph unicode="&#x491;" horiz-adv-x="495" d="M60 30v475q0 13 8.5 21.5t21.5 8.5h246v62q0 13 8.5 21.5t21.5 8.5h89q13 0 21.5 -8.5t8.5 -21.5v-150q0 -13 -8.5 -21.5t-21.5 -8.5h-226v-387q0 -13 -8.5 -21.5t-21.5 -8.5h-109q-13 0 -21.5 8.5t-8.5 21.5z" />
<glyph unicode="&#x2000;" horiz-adv-x="495" />
<glyph unicode="&#x2001;" horiz-adv-x="991" />
<glyph unicode="&#x2002;" horiz-adv-x="495" />
<glyph unicode="&#x2003;" horiz-adv-x="991" />
<glyph unicode="&#x2004;" horiz-adv-x="330" />
<glyph unicode="&#x2005;" horiz-adv-x="247" />
<glyph unicode="&#x2006;" horiz-adv-x="165" />
<glyph unicode="&#x2007;" horiz-adv-x="165" />
<glyph unicode="&#x2008;" horiz-adv-x="123" />
<glyph unicode="&#x2009;" horiz-adv-x="198" />
<glyph unicode="&#x200a;" horiz-adv-x="55" />
<glyph unicode="&#x2010;" d="M20 278v58q0 13 8.5 21.5t21.5 8.5h368q13 0 21.5 -8.5t8.5 -21.5v-58q0 -13 -8.5 -21.5t-21.5 -8.5h-368q-13 0 -21.5 8.5t-8.5 21.5z" />
<glyph unicode="&#x2011;" d="M20 278v58q0 13 8.5 21.5t21.5 8.5h368q13 0 21.5 -8.5t8.5 -21.5v-58q0 -13 -8.5 -21.5t-21.5 -8.5h-368q-13 0 -21.5 8.5t-8.5 21.5z" />
<glyph unicode="&#x2012;" d="M20 278v58q0 13 8.5 21.5t21.5 8.5h368q13 0 21.5 -8.5t8.5 -21.5v-58q0 -13 -8.5 -21.5t-21.5 -8.5h-368q-13 0 -21.5 8.5t-8.5 21.5z" />
<glyph unicode="&#x2013;" horiz-adv-x="373" d="M20 261v74q0 13 8.5 21.5t21.5 8.5h273q13 0 21.5 -8.5t8.5 -21.5v-74q0 -13 -8.5 -21.5t-21.5 -8.5h-273q-13 0 -21.5 8.5t-8.5 21.5z" />
<glyph unicode="&#x2014;" horiz-adv-x="614" d="M20 278v58q0 13 8.5 21.5t21.5 8.5h514q13 0 21.5 -8.5t8.5 -21.5v-58q0 -13 -8.5 -21.5t-21.5 -8.5h-514q-13 0 -21.5 8.5t-8.5 21.5z" />
<glyph unicode="&#x2018;" horiz-adv-x="269" d="M47 497l58 147q10 24 30.5 40t46.5 16h19q31 0 41 -16t4 -50l-29 -157q-4 -23 -26.5 -39.5t-47.5 -16.5h-40q-39 0 -54.5 20.5t-1.5 55.5z" />
<glyph unicode="&#x2019;" horiz-adv-x="269" d="M23 487l29 157q4 23 26.5 39.5t47.5 16.5h40q39 0 54.5 -20.5t1.5 -55.5l-58 -147q-10 -24 -30.5 -40t-46.5 -16h-19q-31 0 -41 16t-4 50z" />
<glyph unicode="&#x201a;" horiz-adv-x="269" d="M23 -55l29 157q4 23 26.5 39.5t47.5 16.5h40q39 0 54.5 -20.5t1.5 -55.5l-58 -147q-10 -24 -30.5 -40t-46.5 -16h-19q-31 0 -41 16t-4 50z" />
<glyph unicode="&#x201c;" horiz-adv-x="479" d="M47 497l58 147q10 24 30.5 40t46.5 16h19q31 0 41 -16t4 -50l-29 -157q-4 -23 -26.5 -39.5t-47.5 -16.5h-40q-39 0 -54.5 20.5t-1.5 55.5zM257 497l58 147q10 24 30.5 40t46.5 16h19q31 0 41 -16t4 -50l-29 -157q-4 -23 -26.5 -39.5t-47.5 -16.5h-40q-39 0 -54.5 20.5 t-1.5 55.5z" />
<glyph unicode="&#x201d;" horiz-adv-x="479" d="M23 487l29 157q4 23 26.5 39.5t47.5 16.5h40q39 0 54.5 -20.5t1.5 -55.5l-58 -147q-10 -24 -30.5 -40t-46.5 -16h-19q-31 0 -41 16t-4 50zM233 487l29 157q4 23 26.5 39.5t47.5 16.5h40q39 0 54.5 -20.5t1.5 -55.5l-58 -147q-10 -24 -30.5 -40t-46.5 -16h-19 q-31 0 -41 16t-4 50z" />
<glyph unicode="&#x201e;" horiz-adv-x="479" d="M23 -55l29 157q4 23 26.5 39.5t47.5 16.5h40q39 0 54.5 -20.5t1.5 -55.5l-58 -147q-10 -24 -30.5 -40t-46.5 -16h-19q-31 0 -41 16t-4 50zM233 -55l29 157q4 23 26.5 39.5t47.5 16.5h40q39 0 54.5 -20.5t1.5 -55.5l-58 -147q-10 -24 -30.5 -40t-46.5 -16h-19 q-31 0 -41 16t-4 50z" />
<glyph unicode="&#x2026;" horiz-adv-x="742" d="M40 61v31q0 32 17 49t49 17h60q32 0 49 -17t17 -49v-31q0 -31 -17 -48.5t-49 -17.5h-60q-32 0 -49 17.5t-17 48.5zM275 61v31q0 32 17.5 49t48.5 17h60q31 0 48.5 -17t17.5 -49v-31q0 -31 -17.5 -48.5t-48.5 -17.5h-60q-31 0 -48.5 17.5t-17.5 48.5zM510 61v31 q0 32 17 49t49 17h60q32 0 49 -17t17 -49v-31q0 -31 -17 -48.5t-49 -17.5h-60q-32 0 -49 17.5t-17 48.5z" />
<glyph unicode="&#x202f;" horiz-adv-x="198" />
<glyph unicode="&#x2039;" horiz-adv-x="420" d="M30 255v24q0 32 29 53l278 197q17 11 30 4.5t13 -24.5v-84q0 -36 -43 -66l-130 -92l130 -92q43 -30 43 -66v-84q0 -18 -13 -24.5t-30 4.5l-278 197q-29 21 -29 53z" />
<glyph unicode="&#x203a;" horiz-adv-x="420" d="M40 25v84q0 36 43 66l130 92l-130 92q-43 30 -43 66v84q0 18 13 24.5t30 -4.5l278 -197q29 -21 29 -53v-24q0 -32 -29 -53l-278 -197q-17 -11 -30 -4.5t-13 24.5z" />
<glyph unicode="&#x205f;" horiz-adv-x="247" />
<glyph unicode="&#x20ac;" horiz-adv-x="865" d="M0 314v23h550v-23q0 -13 -8.5 -21.5t-21.5 -8.5h-255q4 -83 45.5 -116.5t134.5 -33.5h97q87 0 120 67q26 54 70 54h58q9 0 19 -3.5t20.5 -17t10.5 -33.5q0 -63 -42.5 -111t-105.5 -71t-133 -23h-119q-330 0 -359 288h-51q-13 0 -21.5 8.5t-8.5 21.5zM15 364v23 q0 13 8.5 21.5t21.5 8.5h36q32 287 359 287h109q70 0 133 -23t105.5 -71t42.5 -111q0 -29 -17 -41.5t-33 -12.5h-58q-44 0 -70 54q-33 67 -120 67h-87q-93 0 -134 -33.5t-46 -115.5h270q13 0 21.5 -8.5t8.5 -21.5v-23h-550z" />
<glyph unicode="&#x2122;" horiz-adv-x="806" d="M0 648v34q0 18 17 18h287q18 0 18 -18v-34q0 -18 -18 -18h-93v-233q0 -7 -5.5 -12.5t-12.5 -5.5h-65q-8 0 -13 5.5t-5 12.5v233h-93q-17 0 -17 18zM346 397v285q0 18 18 18h100q17 0 26 -21l71 -175l71 175q9 21 26 21h100q18 0 18 -18v-285q0 -7 -5 -12.5t-13 -5.5h-63 q-7 0 -12.5 5.5t-5.5 12.5v183l-74 -180q-11 -21 -28 -21h-28q-17 0 -28 21l-74 180v-183q0 -7 -5.5 -12.5t-12.5 -5.5h-63q-8 0 -13 5.5t-5 12.5z" />
<glyph unicode="&#xe000;" horiz-adv-x="535" d="M0 0v535h535v-535h-535z" />
</font>
</defs>
</svg>
